<?xml version="1.0" encoding="utf-8" standalone="no"?>
<!DOCTYPE svg PUBLIC "-//W3C//DTD SVG 1.1//EN"
  "http://www.w3.org/Graphics/SVG/1.1/DTD/svg11.dtd">
<!-- Created with matplotlib (https://matplotlib.org/) -->
<svg height="406.501641pt" version="1.1" viewBox="0 0 406.041562 406.501641" width="406.041562pt" xmlns="http://www.w3.org/2000/svg" xmlns:xlink="http://www.w3.org/1999/xlink">
 <defs>
  <style type="text/css">
*{stroke-linecap:butt;stroke-linejoin:round;}
  </style>
 </defs>
 <g id="figure_1">
  <g id="patch_1">
   <path d="M 0 406.501641 
L 406.041562 406.501641 
L 406.041562 0 
L 0 0 
z
" style="fill:#ffffff;"/>
  </g>
  <g id="axes_1">
   <g id="patch_2">
    <path d="M 63.096563 350.82 
L 341.285277 350.82 
L 341.285277 66.106286 
L 63.096563 66.106286 
z
" style="fill:#ffffff;"/>
   </g>
   <g id="matplotlib.axis_1">
    <g id="xtick_1">
     <g id="line2d_1">
      <defs>
       <path d="M 0 0 
L 0 9 
" id="m9063feffa9" style="stroke:#262626;stroke-width:1.875;"/>
      </defs>
      <g>
       <use style="fill:#262626;stroke:#262626;stroke-width:1.875;" x="108.264519" xlink:href="#m9063feffa9" y="350.82"/>
      </g>
     </g>
     <g id="text_1">
      <!-- 1 -->
      <defs>
       <path d="M 37.25 0 
L 28.46875 0 
L 28.46875 56 
Q 25.296875 52.984375 20.140625 49.953125 
Q 14.984375 46.921875 10.890625 45.40625 
L 10.890625 53.90625 
Q 18.265625 57.375 23.78125 62.296875 
Q 29.296875 67.234375 31.59375 71.875 
L 37.25 71.875 
z
" id="ArialMT-49"/>
      </defs>
      <g style="fill:#262626;" transform="translate(103.676746 375.130391)scale(0.165 -0.165)">
       <use xlink:href="#ArialMT-49"/>
      </g>
     </g>
    </g>
    <g id="xtick_2">
     <g id="line2d_2">
      <g>
       <use style="fill:#262626;stroke:#262626;stroke-width:1.875;" x="180.321754" xlink:href="#m9063feffa9" y="350.82"/>
      </g>
     </g>
     <g id="text_2">
      <!-- 2 -->
      <defs>
       <path d="M 50.34375 8.453125 
L 50.34375 0 
L 3.03125 0 
Q 2.9375 3.171875 4.046875 6.109375 
Q 5.859375 10.9375 9.828125 15.625 
Q 13.8125 20.3125 21.34375 26.46875 
Q 33.015625 36.03125 37.109375 41.625 
Q 41.21875 47.21875 41.21875 52.203125 
Q 41.21875 57.421875 37.46875 61 
Q 33.734375 64.59375 27.734375 64.59375 
Q 21.390625 64.59375 17.578125 60.78125 
Q 13.765625 56.984375 13.71875 50.25 
L 4.6875 51.171875 
Q 5.609375 61.28125 11.65625 66.578125 
Q 17.71875 71.875 27.9375 71.875 
Q 38.234375 71.875 44.234375 66.15625 
Q 50.25 60.453125 50.25 52 
Q 50.25 47.703125 48.484375 43.546875 
Q 46.734375 39.40625 42.65625 34.8125 
Q 38.578125 30.21875 29.109375 22.21875 
Q 21.1875 15.578125 18.9375 13.203125 
Q 16.703125 10.84375 15.234375 8.453125 
z
" id="ArialMT-50"/>
      </defs>
      <g style="fill:#262626;" transform="translate(175.733981 375.130391)scale(0.165 -0.165)">
       <use xlink:href="#ArialMT-50"/>
      </g>
     </g>
    </g>
    <g id="xtick_3">
     <g id="line2d_3">
      <g>
       <use style="fill:#262626;stroke:#262626;stroke-width:1.875;" x="252.378989" xlink:href="#m9063feffa9" y="350.82"/>
      </g>
     </g>
     <g id="text_3">
      <!-- 3 -->
      <defs>
       <path d="M 4.203125 18.890625 
L 12.984375 20.0625 
Q 14.5 12.59375 18.140625 9.296875 
Q 21.78125 6 27 6 
Q 33.203125 6 37.46875 10.296875 
Q 41.75 14.59375 41.75 20.953125 
Q 41.75 27 37.796875 30.921875 
Q 33.84375 34.859375 27.734375 34.859375 
Q 25.25 34.859375 21.53125 33.890625 
L 22.515625 41.609375 
Q 23.390625 41.5 23.921875 41.5 
Q 29.546875 41.5 34.03125 44.421875 
Q 38.53125 47.359375 38.53125 53.46875 
Q 38.53125 58.296875 35.25 61.46875 
Q 31.984375 64.65625 26.8125 64.65625 
Q 21.6875 64.65625 18.265625 61.421875 
Q 14.84375 58.203125 13.875 51.765625 
L 5.078125 53.328125 
Q 6.6875 62.15625 12.390625 67.015625 
Q 18.109375 71.875 26.609375 71.875 
Q 32.46875 71.875 37.390625 69.359375 
Q 42.328125 66.84375 44.9375 62.5 
Q 47.5625 58.15625 47.5625 53.265625 
Q 47.5625 48.640625 45.0625 44.828125 
Q 42.578125 41.015625 37.703125 38.765625 
Q 44.046875 37.3125 47.5625 32.6875 
Q 51.078125 28.078125 51.078125 21.140625 
Q 51.078125 11.765625 44.234375 5.25 
Q 37.40625 -1.265625 26.953125 -1.265625 
Q 17.53125 -1.265625 11.296875 4.34375 
Q 5.078125 9.96875 4.203125 18.890625 
z
" id="ArialMT-51"/>
      </defs>
      <g style="fill:#262626;" transform="translate(247.791216 375.130391)scale(0.165 -0.165)">
       <use xlink:href="#ArialMT-51"/>
      </g>
     </g>
    </g>
    <g id="xtick_4">
     <g id="line2d_4">
      <g>
       <use style="fill:#262626;stroke:#262626;stroke-width:1.875;" x="324.436224" xlink:href="#m9063feffa9" y="350.82"/>
      </g>
     </g>
     <g id="text_4">
      <!-- 4 -->
      <defs>
       <path d="M 32.328125 0 
L 32.328125 17.140625 
L 1.265625 17.140625 
L 1.265625 25.203125 
L 33.9375 71.578125 
L 41.109375 71.578125 
L 41.109375 25.203125 
L 50.78125 25.203125 
L 50.78125 17.140625 
L 41.109375 17.140625 
L 41.109375 0 
z
M 32.328125 25.203125 
L 32.328125 57.46875 
L 9.90625 25.203125 
z
" id="ArialMT-52"/>
      </defs>
      <g style="fill:#262626;" transform="translate(319.848451 375.130391)scale(0.165 -0.165)">
       <use xlink:href="#ArialMT-52"/>
      </g>
     </g>
    </g>
    <g id="text_5">
     <!-- Semantic entropy -->
     <defs>
      <path d="M 4.5 23 
L 13.421875 23.78125 
Q 14.0625 18.40625 16.375 14.96875 
Q 18.703125 11.53125 23.578125 9.40625 
Q 28.46875 7.28125 34.578125 7.28125 
Q 39.984375 7.28125 44.140625 8.890625 
Q 48.296875 10.5 50.3125 13.296875 
Q 52.34375 16.109375 52.34375 19.4375 
Q 52.34375 22.796875 50.390625 25.3125 
Q 48.4375 27.828125 43.953125 29.546875 
Q 41.0625 30.671875 31.203125 33.03125 
Q 21.34375 35.40625 17.390625 37.5 
Q 12.25 40.1875 9.734375 44.15625 
Q 7.234375 48.140625 7.234375 53.078125 
Q 7.234375 58.5 10.296875 63.203125 
Q 13.375 67.921875 19.28125 70.359375 
Q 25.203125 72.796875 32.421875 72.796875 
Q 40.375 72.796875 46.453125 70.234375 
Q 52.546875 67.671875 55.8125 62.6875 
Q 59.078125 57.71875 59.328125 51.421875 
L 50.25 50.734375 
Q 49.515625 57.515625 45.28125 60.984375 
Q 41.0625 64.453125 32.8125 64.453125 
Q 24.21875 64.453125 20.28125 61.296875 
Q 16.359375 58.15625 16.359375 53.71875 
Q 16.359375 49.859375 19.140625 47.359375 
Q 21.875 44.875 33.421875 42.265625 
Q 44.96875 39.65625 49.265625 37.703125 
Q 55.515625 34.8125 58.484375 30.390625 
Q 61.46875 25.984375 61.46875 20.21875 
Q 61.46875 14.5 58.203125 9.4375 
Q 54.9375 4.390625 48.796875 1.578125 
Q 42.671875 -1.21875 35.015625 -1.21875 
Q 25.296875 -1.21875 18.71875 1.609375 
Q 12.15625 4.4375 8.421875 10.125 
Q 4.6875 15.828125 4.5 23 
z
" id="ArialMT-83"/>
      <path d="M 42.09375 16.703125 
L 51.171875 15.578125 
Q 49.03125 7.625 43.21875 3.21875 
Q 37.40625 -1.171875 28.375 -1.171875 
Q 17 -1.171875 10.328125 5.828125 
Q 3.65625 12.84375 3.65625 25.484375 
Q 3.65625 38.578125 10.390625 45.796875 
Q 17.140625 53.03125 27.875 53.03125 
Q 38.28125 53.03125 44.875 45.953125 
Q 51.46875 38.875 51.46875 26.03125 
Q 51.46875 25.25 51.421875 23.6875 
L 12.75 23.6875 
Q 13.234375 15.140625 17.578125 10.59375 
Q 21.921875 6.0625 28.421875 6.0625 
Q 33.25 6.0625 36.671875 8.59375 
Q 40.09375 11.140625 42.09375 16.703125 
z
M 13.234375 30.90625 
L 42.1875 30.90625 
Q 41.609375 37.453125 38.875 40.71875 
Q 34.671875 45.796875 27.984375 45.796875 
Q 21.921875 45.796875 17.796875 41.75 
Q 13.671875 37.703125 13.234375 30.90625 
z
" id="ArialMT-101"/>
      <path d="M 6.59375 0 
L 6.59375 51.859375 
L 14.453125 51.859375 
L 14.453125 44.578125 
Q 16.890625 48.390625 20.9375 50.703125 
Q 25 53.03125 30.171875 53.03125 
Q 35.9375 53.03125 39.625 50.640625 
Q 43.3125 48.25 44.828125 43.953125 
Q 50.984375 53.03125 60.84375 53.03125 
Q 68.5625 53.03125 72.703125 48.75 
Q 76.859375 44.484375 76.859375 35.59375 
L 76.859375 0 
L 68.109375 0 
L 68.109375 32.671875 
Q 68.109375 37.9375 67.25 40.25 
Q 66.40625 42.578125 64.15625 43.984375 
Q 61.921875 45.40625 58.890625 45.40625 
Q 53.421875 45.40625 49.796875 41.765625 
Q 46.1875 38.140625 46.1875 30.125 
L 46.1875 0 
L 37.40625 0 
L 37.40625 33.6875 
Q 37.40625 39.546875 35.25 42.46875 
Q 33.109375 45.40625 28.21875 45.40625 
Q 24.515625 45.40625 21.359375 43.453125 
Q 18.21875 41.5 16.796875 37.734375 
Q 15.375 33.984375 15.375 26.90625 
L 15.375 0 
z
" id="ArialMT-109"/>
      <path d="M 40.4375 6.390625 
Q 35.546875 2.25 31.03125 0.53125 
Q 26.515625 -1.171875 21.34375 -1.171875 
Q 12.796875 -1.171875 8.203125 3 
Q 3.609375 7.171875 3.609375 13.671875 
Q 3.609375 17.484375 5.34375 20.625 
Q 7.078125 23.78125 9.890625 25.6875 
Q 12.703125 27.59375 16.21875 28.5625 
Q 18.796875 29.25 24.03125 29.890625 
Q 34.671875 31.15625 39.703125 32.90625 
Q 39.75 34.71875 39.75 35.203125 
Q 39.75 40.578125 37.25 42.78125 
Q 33.890625 45.75 27.25 45.75 
Q 21.046875 45.75 18.09375 43.578125 
Q 15.140625 41.40625 13.71875 35.890625 
L 5.125 37.0625 
Q 6.296875 42.578125 8.984375 45.96875 
Q 11.671875 49.359375 16.75 51.1875 
Q 21.828125 53.03125 28.515625 53.03125 
Q 35.15625 53.03125 39.296875 51.46875 
Q 43.453125 49.90625 45.40625 47.53125 
Q 47.359375 45.171875 48.140625 41.546875 
Q 48.578125 39.3125 48.578125 33.453125 
L 48.578125 21.734375 
Q 48.578125 9.46875 49.140625 6.21875 
Q 49.703125 2.984375 51.375 0 
L 42.1875 0 
Q 40.828125 2.734375 40.4375 6.390625 
z
M 39.703125 26.03125 
Q 34.90625 24.078125 25.34375 22.703125 
Q 19.921875 21.921875 17.671875 20.9375 
Q 15.4375 19.96875 14.203125 18.09375 
Q 12.984375 16.21875 12.984375 13.921875 
Q 12.984375 10.40625 15.640625 8.0625 
Q 18.3125 5.71875 23.4375 5.71875 
Q 28.515625 5.71875 32.46875 7.9375 
Q 36.421875 10.15625 38.28125 14.015625 
Q 39.703125 17 39.703125 22.796875 
z
" id="ArialMT-97"/>
      <path d="M 6.59375 0 
L 6.59375 51.859375 
L 14.5 51.859375 
L 14.5 44.484375 
Q 20.21875 53.03125 31 53.03125 
Q 35.6875 53.03125 39.625 51.34375 
Q 43.5625 49.65625 45.515625 46.921875 
Q 47.46875 44.1875 48.25 40.4375 
Q 48.734375 37.984375 48.734375 31.890625 
L 48.734375 0 
L 39.9375 0 
L 39.9375 31.546875 
Q 39.9375 36.921875 38.90625 39.578125 
Q 37.890625 42.234375 35.28125 43.8125 
Q 32.671875 45.40625 29.15625 45.40625 
Q 23.53125 45.40625 19.453125 41.84375 
Q 15.375 38.28125 15.375 28.328125 
L 15.375 0 
z
" id="ArialMT-110"/>
      <path d="M 25.78125 7.859375 
L 27.046875 0.09375 
Q 23.34375 -0.6875 20.40625 -0.6875 
Q 15.625 -0.6875 12.984375 0.828125 
Q 10.359375 2.34375 9.28125 4.8125 
Q 8.203125 7.28125 8.203125 15.1875 
L 8.203125 45.015625 
L 1.765625 45.015625 
L 1.765625 51.859375 
L 8.203125 51.859375 
L 8.203125 64.703125 
L 16.9375 69.96875 
L 16.9375 51.859375 
L 25.78125 51.859375 
L 25.78125 45.015625 
L 16.9375 45.015625 
L 16.9375 14.703125 
Q 16.9375 10.9375 17.40625 9.859375 
Q 17.875 8.796875 18.921875 8.15625 
Q 19.96875 7.515625 21.921875 7.515625 
Q 23.390625 7.515625 25.78125 7.859375 
z
" id="ArialMT-116"/>
      <path d="M 6.640625 61.46875 
L 6.640625 71.578125 
L 15.4375 71.578125 
L 15.4375 61.46875 
z
M 6.640625 0 
L 6.640625 51.859375 
L 15.4375 51.859375 
L 15.4375 0 
z
" id="ArialMT-105"/>
      <path d="M 40.4375 19 
L 49.078125 17.875 
Q 47.65625 8.9375 41.8125 3.875 
Q 35.984375 -1.171875 27.484375 -1.171875 
Q 16.84375 -1.171875 10.375 5.78125 
Q 3.90625 12.75 3.90625 25.734375 
Q 3.90625 34.125 6.6875 40.421875 
Q 9.46875 46.734375 15.15625 49.875 
Q 20.84375 53.03125 27.546875 53.03125 
Q 35.984375 53.03125 41.359375 48.75 
Q 46.734375 44.484375 48.25 36.625 
L 39.703125 35.296875 
Q 38.484375 40.53125 35.375 43.15625 
Q 32.28125 45.796875 27.875 45.796875 
Q 21.234375 45.796875 17.078125 41.03125 
Q 12.9375 36.28125 12.9375 25.984375 
Q 12.9375 15.53125 16.9375 10.796875 
Q 20.953125 6.0625 27.390625 6.0625 
Q 32.5625 6.0625 36.03125 9.234375 
Q 39.5 12.40625 40.4375 19 
z
" id="ArialMT-99"/>
      <path id="ArialMT-32"/>
      <path d="M 6.5 0 
L 6.5 51.859375 
L 14.40625 51.859375 
L 14.40625 44 
Q 17.4375 49.515625 20 51.265625 
Q 22.5625 53.03125 25.640625 53.03125 
Q 30.078125 53.03125 34.671875 50.203125 
L 31.640625 42.046875 
Q 28.421875 43.953125 25.203125 43.953125 
Q 22.3125 43.953125 20.015625 42.21875 
Q 17.71875 40.484375 16.75 37.40625 
Q 15.28125 32.71875 15.28125 27.15625 
L 15.28125 0 
z
" id="ArialMT-114"/>
      <path d="M 3.328125 25.921875 
Q 3.328125 40.328125 11.328125 47.265625 
Q 18.015625 53.03125 27.640625 53.03125 
Q 38.328125 53.03125 45.109375 46.015625 
Q 51.90625 39.015625 51.90625 26.65625 
Q 51.90625 16.65625 48.90625 10.90625 
Q 45.90625 5.171875 40.15625 2 
Q 34.421875 -1.171875 27.640625 -1.171875 
Q 16.75 -1.171875 10.03125 5.8125 
Q 3.328125 12.796875 3.328125 25.921875 
z
M 12.359375 25.921875 
Q 12.359375 15.96875 16.703125 11.015625 
Q 21.046875 6.0625 27.640625 6.0625 
Q 34.1875 6.0625 38.53125 11.03125 
Q 42.875 16.015625 42.875 26.21875 
Q 42.875 35.84375 38.5 40.796875 
Q 34.125 45.75 27.640625 45.75 
Q 21.046875 45.75 16.703125 40.8125 
Q 12.359375 35.890625 12.359375 25.921875 
z
" id="ArialMT-111"/>
      <path d="M 6.59375 -19.875 
L 6.59375 51.859375 
L 14.59375 51.859375 
L 14.59375 45.125 
Q 17.4375 49.078125 21 51.046875 
Q 24.5625 53.03125 29.640625 53.03125 
Q 36.28125 53.03125 41.359375 49.609375 
Q 46.4375 46.1875 49.015625 39.953125 
Q 51.609375 33.734375 51.609375 26.3125 
Q 51.609375 18.359375 48.75 11.984375 
Q 45.90625 5.609375 40.453125 2.21875 
Q 35.015625 -1.171875 29 -1.171875 
Q 24.609375 -1.171875 21.109375 0.6875 
Q 17.625 2.546875 15.375 5.375 
L 15.375 -19.875 
z
M 14.546875 25.640625 
Q 14.546875 15.625 18.59375 10.84375 
Q 22.65625 6.0625 28.421875 6.0625 
Q 34.28125 6.0625 38.453125 11.015625 
Q 42.625 15.96875 42.625 26.375 
Q 42.625 36.28125 38.546875 41.203125 
Q 34.46875 46.140625 28.8125 46.140625 
Q 23.1875 46.140625 18.859375 40.890625 
Q 14.546875 35.640625 14.546875 25.640625 
z
" id="ArialMT-112"/>
      <path d="M 6.203125 -19.96875 
L 5.21875 -11.71875 
Q 8.109375 -12.5 10.25 -12.5 
Q 13.1875 -12.5 14.9375 -11.515625 
Q 16.703125 -10.546875 17.828125 -8.796875 
Q 18.65625 -7.46875 20.515625 -2.25 
Q 20.75 -1.515625 21.296875 -0.09375 
L 1.609375 51.859375 
L 11.078125 51.859375 
L 21.875 21.828125 
Q 23.96875 16.109375 25.640625 9.8125 
Q 27.15625 15.875 29.25 21.625 
L 40.328125 51.859375 
L 49.125 51.859375 
L 29.390625 -0.875 
Q 26.21875 -9.421875 24.46875 -12.640625 
Q 22.125 -17 19.09375 -19.015625 
Q 16.0625 -21.046875 11.859375 -21.046875 
Q 9.328125 -21.046875 6.203125 -19.96875 
z
" id="ArialMT-121"/>
     </defs>
     <g style="fill:#262626;" transform="translate(132.15967 395.513203)scale(0.18 -0.18)">
      <use xlink:href="#ArialMT-83"/>
      <use x="66.699219" xlink:href="#ArialMT-101"/>
      <use x="122.314453" xlink:href="#ArialMT-109"/>
      <use x="205.615234" xlink:href="#ArialMT-97"/>
      <use x="261.230469" xlink:href="#ArialMT-110"/>
      <use x="316.845703" xlink:href="#ArialMT-116"/>
      <use x="344.628906" xlink:href="#ArialMT-105"/>
      <use x="366.845703" xlink:href="#ArialMT-99"/>
      <use x="416.845703" xlink:href="#ArialMT-32"/>
      <use x="444.628906" xlink:href="#ArialMT-101"/>
      <use x="500.244141" xlink:href="#ArialMT-110"/>
      <use x="555.859375" xlink:href="#ArialMT-116"/>
      <use x="583.642578" xlink:href="#ArialMT-114"/>
      <use x="616.943359" xlink:href="#ArialMT-111"/>
      <use x="672.558594" xlink:href="#ArialMT-112"/>
      <use x="728.173828" xlink:href="#ArialMT-121"/>
     </g>
    </g>
   </g>
   <g id="matplotlib.axis_2">
    <g id="ytick_1">
     <g id="line2d_5">
      <defs>
       <path d="M 0 0 
L -9 0 
" id="mf50f86c60d" style="stroke:#262626;stroke-width:1.875;"/>
      </defs>
      <g>
       <use style="fill:#262626;stroke:#262626;stroke-width:1.875;" x="63.096563" xlink:href="#mf50f86c60d" y="326.462523"/>
      </g>
     </g>
     <g id="text_6">
      <!-- 1.5 -->
      <defs>
       <path d="M 9.078125 0 
L 9.078125 10.015625 
L 19.09375 10.015625 
L 19.09375 0 
z
" id="ArialMT-46"/>
       <path d="M 4.15625 18.75 
L 13.375 19.53125 
Q 14.40625 12.796875 18.140625 9.390625 
Q 21.875 6 27.15625 6 
Q 33.5 6 37.890625 10.78125 
Q 42.28125 15.578125 42.28125 23.484375 
Q 42.28125 31 38.0625 35.34375 
Q 33.84375 39.703125 27 39.703125 
Q 22.75 39.703125 19.328125 37.765625 
Q 15.921875 35.84375 13.96875 32.765625 
L 5.71875 33.84375 
L 12.640625 70.609375 
L 48.25 70.609375 
L 48.25 62.203125 
L 19.671875 62.203125 
L 15.828125 42.96875 
Q 22.265625 47.46875 29.34375 47.46875 
Q 38.71875 47.46875 45.15625 40.96875 
Q 51.609375 34.46875 51.609375 24.265625 
Q 51.609375 14.546875 45.953125 7.46875 
Q 39.0625 -1.21875 27.15625 -1.21875 
Q 17.390625 -1.21875 11.203125 4.25 
Q 5.03125 9.71875 4.15625 18.75 
z
" id="ArialMT-53"/>
      </defs>
      <g style="fill:#262626;" transform="translate(27.661563 332.367719)scale(0.165 -0.165)">
       <use xlink:href="#ArialMT-49"/>
       <use x="55.615234" xlink:href="#ArialMT-46"/>
       <use x="83.398438" xlink:href="#ArialMT-53"/>
      </g>
     </g>
    </g>
    <g id="ytick_2">
     <g id="line2d_6">
      <g>
       <use style="fill:#262626;stroke:#262626;stroke-width:1.875;" x="63.096563" xlink:href="#mf50f86c60d" y="286.680063"/>
      </g>
     </g>
     <g id="text_7">
      <!-- 2.0 -->
      <defs>
       <path d="M 4.15625 35.296875 
Q 4.15625 48 6.765625 55.734375 
Q 9.375 63.484375 14.515625 67.671875 
Q 19.671875 71.875 27.484375 71.875 
Q 33.25 71.875 37.59375 69.546875 
Q 41.9375 67.234375 44.765625 62.859375 
Q 47.609375 58.5 49.21875 52.21875 
Q 50.828125 45.953125 50.828125 35.296875 
Q 50.828125 22.703125 48.234375 14.96875 
Q 45.65625 7.234375 40.5 3 
Q 35.359375 -1.21875 27.484375 -1.21875 
Q 17.140625 -1.21875 11.234375 6.203125 
Q 4.15625 15.140625 4.15625 35.296875 
z
M 13.1875 35.296875 
Q 13.1875 17.671875 17.3125 11.828125 
Q 21.4375 6 27.484375 6 
Q 33.546875 6 37.671875 11.859375 
Q 41.796875 17.71875 41.796875 35.296875 
Q 41.796875 52.984375 37.671875 58.78125 
Q 33.546875 64.59375 27.390625 64.59375 
Q 21.34375 64.59375 17.71875 59.46875 
Q 13.1875 52.9375 13.1875 35.296875 
z
" id="ArialMT-48"/>
      </defs>
      <g style="fill:#262626;" transform="translate(27.661563 292.585258)scale(0.165 -0.165)">
       <use xlink:href="#ArialMT-50"/>
       <use x="55.615234" xlink:href="#ArialMT-46"/>
       <use x="83.398438" xlink:href="#ArialMT-48"/>
      </g>
     </g>
    </g>
    <g id="ytick_3">
     <g id="line2d_7">
      <g>
       <use style="fill:#262626;stroke:#262626;stroke-width:1.875;" x="63.096563" xlink:href="#mf50f86c60d" y="246.897602"/>
      </g>
     </g>
     <g id="text_8">
      <!-- 2.5 -->
      <g style="fill:#262626;" transform="translate(27.661563 252.802798)scale(0.165 -0.165)">
       <use xlink:href="#ArialMT-50"/>
       <use x="55.615234" xlink:href="#ArialMT-46"/>
       <use x="83.398438" xlink:href="#ArialMT-53"/>
      </g>
     </g>
    </g>
    <g id="ytick_4">
     <g id="line2d_8">
      <g>
       <use style="fill:#262626;stroke:#262626;stroke-width:1.875;" x="63.096563" xlink:href="#mf50f86c60d" y="207.115142"/>
      </g>
     </g>
     <g id="text_9">
      <!-- 3.0 -->
      <g style="fill:#262626;" transform="translate(27.661563 213.020337)scale(0.165 -0.165)">
       <use xlink:href="#ArialMT-51"/>
       <use x="55.615234" xlink:href="#ArialMT-46"/>
       <use x="83.398438" xlink:href="#ArialMT-48"/>
      </g>
     </g>
    </g>
    <g id="ytick_5">
     <g id="line2d_9">
      <g>
       <use style="fill:#262626;stroke:#262626;stroke-width:1.875;" x="63.096563" xlink:href="#mf50f86c60d" y="167.332682"/>
      </g>
     </g>
     <g id="text_10">
      <!-- 3.5 -->
      <g style="fill:#262626;" transform="translate(27.661563 173.237877)scale(0.165 -0.165)">
       <use xlink:href="#ArialMT-51"/>
       <use x="55.615234" xlink:href="#ArialMT-46"/>
       <use x="83.398438" xlink:href="#ArialMT-53"/>
      </g>
     </g>
    </g>
    <g id="ytick_6">
     <g id="line2d_10">
      <g>
       <use style="fill:#262626;stroke:#262626;stroke-width:1.875;" x="63.096563" xlink:href="#mf50f86c60d" y="127.550221"/>
      </g>
     </g>
     <g id="text_11">
      <!-- 4.0 -->
      <g style="fill:#262626;" transform="translate(27.661563 133.455417)scale(0.165 -0.165)">
       <use xlink:href="#ArialMT-52"/>
       <use x="55.615234" xlink:href="#ArialMT-46"/>
       <use x="83.398438" xlink:href="#ArialMT-48"/>
      </g>
     </g>
    </g>
    <g id="ytick_7">
     <g id="line2d_11">
      <g>
       <use style="fill:#262626;stroke:#262626;stroke-width:1.875;" x="63.096563" xlink:href="#mf50f86c60d" y="87.767761"/>
      </g>
     </g>
     <g id="text_12">
      <!-- 4.5 -->
      <g style="fill:#262626;" transform="translate(27.661563 93.672956)scale(0.165 -0.165)">
       <use xlink:href="#ArialMT-52"/>
       <use x="55.615234" xlink:href="#ArialMT-46"/>
       <use x="83.398438" xlink:href="#ArialMT-53"/>
      </g>
     </g>
    </g>
    <g id="text_13">
     <!-- Aha -->
     <defs>
      <path d="M -0.140625 0 
L 27.34375 71.578125 
L 37.546875 71.578125 
L 66.84375 0 
L 56.0625 0 
L 47.703125 21.6875 
L 17.78125 21.6875 
L 9.90625 0 
z
M 20.515625 29.390625 
L 44.78125 29.390625 
L 37.3125 49.21875 
Q 33.890625 58.25 32.234375 64.0625 
Q 30.859375 57.171875 28.375 50.390625 
z
" id="ArialMT-65"/>
      <path d="M 6.59375 0 
L 6.59375 71.578125 
L 15.375 71.578125 
L 15.375 45.90625 
Q 21.53125 53.03125 30.90625 53.03125 
Q 36.671875 53.03125 40.921875 50.75 
Q 45.171875 48.484375 47 44.484375 
Q 48.828125 40.484375 48.828125 32.859375 
L 48.828125 0 
L 40.046875 0 
L 40.046875 32.859375 
Q 40.046875 39.453125 37.1875 42.453125 
Q 34.328125 45.453125 29.109375 45.453125 
Q 25.203125 45.453125 21.75 43.421875 
Q 18.3125 41.40625 16.84375 37.9375 
Q 15.375 34.46875 15.375 28.375 
L 15.375 0 
z
" id="ArialMT-104"/>
     </defs>
     <g style="fill:#262626;" transform="translate(20.084063 224.476112)rotate(-90)scale(0.18 -0.18)">
      <use xlink:href="#ArialMT-65"/>
      <use x="66.699219" xlink:href="#ArialMT-104"/>
      <use x="122.314453" xlink:href="#ArialMT-97"/>
     </g>
    </g>
   </g>
   <g id="PathCollection_1">
    <defs>
     <path d="M 0 4.5 
C 1.193414 4.5 2.338109 4.025852 3.181981 3.181981 
C 4.025852 2.338109 4.5 1.193414 4.5 0 
C 4.5 -1.193414 4.025852 -2.338109 3.181981 -3.181981 
C 2.338109 -4.025852 1.193414 -4.5 0 -4.5 
C -1.193414 -4.5 -2.338109 -4.025852 -3.181981 -3.181981 
C -4.025852 -2.338109 -4.5 -1.193414 -4.5 0 
C -4.5 1.193414 -4.025852 2.338109 -3.181981 3.181981 
C -2.338109 4.025852 -1.193414 4.5 0 4.5 
z
" id="m865b973299" style="stroke:#4c72b0;stroke-opacity:0.8;"/>
    </defs>
    <g clip-path="url(#pf2de049fc7)">
     <use style="fill:#4c72b0;fill-opacity:0.8;stroke:#4c72b0;stroke-opacity:0.8;" x="238.531661" xlink:href="#m865b973299" y="191.202158"/>
     <use style="fill:#4c72b0;fill-opacity:0.8;stroke:#4c72b0;stroke-opacity:0.8;" x="250.76414" xlink:href="#m865b973299" y="192.77912"/>
     <use style="fill:#4c72b0;fill-opacity:0.8;stroke:#4c72b0;stroke-opacity:0.8;" x="251.425469" xlink:href="#m865b973299" y="163.273247"/>
     <use style="fill:#4c72b0;fill-opacity:0.8;stroke:#4c72b0;stroke-opacity:0.8;" x="231.002424" xlink:href="#m865b973299" y="190.953518"/>
     <use style="fill:#4c72b0;fill-opacity:0.8;stroke:#4c72b0;stroke-opacity:0.8;" x="204.433194" xlink:href="#m865b973299" y="132.990558"/>
     <use style="fill:#4c72b0;fill-opacity:0.8;stroke:#4c72b0;stroke-opacity:0.8;" x="241.144911" xlink:href="#m865b973299" y="191.760508"/>
     <use style="fill:#4c72b0;fill-opacity:0.8;stroke:#4c72b0;stroke-opacity:0.8;" x="217.389961" xlink:href="#m865b973299" y="175.748202"/>
     <use style="fill:#4c72b0;fill-opacity:0.8;stroke:#4c72b0;stroke-opacity:0.8;" x="167.773869" xlink:href="#m865b973299" y="214.78405"/>
     <use style="fill:#4c72b0;fill-opacity:0.8;stroke:#4c72b0;stroke-opacity:0.8;" x="261.061612" xlink:href="#m865b973299" y="138.399983"/>
     <use style="fill:#4c72b0;fill-opacity:0.8;stroke:#4c72b0;stroke-opacity:0.8;" x="228.975378" xlink:href="#m865b973299" y="169.502634"/>
     <use style="fill:#4c72b0;fill-opacity:0.8;stroke:#4c72b0;stroke-opacity:0.8;" x="256.386377" xlink:href="#m865b973299" y="147.988917"/>
     <use style="fill:#4c72b0;fill-opacity:0.8;stroke:#4c72b0;stroke-opacity:0.8;" x="232.311988" xlink:href="#m865b973299" y="121.545322"/>
     <use style="fill:#4c72b0;fill-opacity:0.8;stroke:#4c72b0;stroke-opacity:0.8;" x="222.045351" xlink:href="#m865b973299" y="207.115142"/>
     <use style="fill:#4c72b0;fill-opacity:0.8;stroke:#4c72b0;stroke-opacity:0.8;" x="273.432381" xlink:href="#m865b973299" y="201.654804"/>
     <use style="fill:#4c72b0;fill-opacity:0.8;stroke:#4c72b0;stroke-opacity:0.8;" x="261.99033" xlink:href="#m865b973299" y="150.582172"/>
     <use style="fill:#4c72b0;fill-opacity:0.8;stroke:#4c72b0;stroke-opacity:0.8;" x="234.154491" xlink:href="#m865b973299" y="171.500368"/>
     <use style="fill:#4c72b0;fill-opacity:0.8;stroke:#4c72b0;stroke-opacity:0.8;" x="221.330094" xlink:href="#m865b973299" y="206.468273"/>
     <use style="fill:#4c72b0;fill-opacity:0.8;stroke:#4c72b0;stroke-opacity:0.8;" x="224.32138" xlink:href="#m865b973299" y="196.118364"/>
     <use style="fill:#4c72b0;fill-opacity:0.8;stroke:#4c72b0;stroke-opacity:0.8;" x="266.807529" xlink:href="#m865b973299" y="177.446867"/>
     <use style="fill:#4c72b0;fill-opacity:0.8;stroke:#4c72b0;stroke-opacity:0.8;" x="214.005308" xlink:href="#m865b973299" y="191.760508"/>
     <use style="fill:#4c72b0;fill-opacity:0.8;stroke:#4c72b0;stroke-opacity:0.8;" x="237.985721" xlink:href="#m865b973299" y="188.909609"/>
     <use style="fill:#4c72b0;fill-opacity:0.8;stroke:#4c72b0;stroke-opacity:0.8;" x="158.036504" xlink:href="#m865b973299" y="309.102904"/>
     <use style="fill:#4c72b0;fill-opacity:0.8;stroke:#4c72b0;stroke-opacity:0.8;" x="216.701998" xlink:href="#m865b973299" y="268.930965"/>
     <use style="fill:#4c72b0;fill-opacity:0.8;stroke:#4c72b0;stroke-opacity:0.8;" x="103.47618" xlink:href="#m865b973299" y="300.206099"/>
     <use style="fill:#4c72b0;fill-opacity:0.8;stroke:#4c72b0;stroke-opacity:0.8;" x="244.685046" xlink:href="#m865b973299" y="128.230263"/>
     <use style="fill:#4c72b0;fill-opacity:0.8;stroke:#4c72b0;stroke-opacity:0.8;" x="238.126189" xlink:href="#m865b973299" y="220.247216"/>
     <use style="fill:#4c72b0;fill-opacity:0.8;stroke:#4c72b0;stroke-opacity:0.8;" x="239.900896" xlink:href="#m865b973299" y="189.851056"/>
     <use style="fill:#4c72b0;fill-opacity:0.8;stroke:#4c72b0;stroke-opacity:0.8;" x="201.955297" xlink:href="#m865b973299" y="228.176445"/>
     <use style="fill:#4c72b0;fill-opacity:0.8;stroke:#4c72b0;stroke-opacity:0.8;" x="268.958691" xlink:href="#m865b973299" y="188.854341"/>
     <use style="fill:#4c72b0;fill-opacity:0.8;stroke:#4c72b0;stroke-opacity:0.8;" x="232.334238" xlink:href="#m865b973299" y="189.213035"/>
     <use style="fill:#4c72b0;fill-opacity:0.8;stroke:#4c72b0;stroke-opacity:0.8;" x="220.761297" xlink:href="#m865b973299" y="209.812258"/>
     <use style="fill:#4c72b0;fill-opacity:0.8;stroke:#4c72b0;stroke-opacity:0.8;" x="146.421147" xlink:href="#m865b973299" y="244.371732"/>
     <use style="fill:#4c72b0;fill-opacity:0.8;stroke:#4c72b0;stroke-opacity:0.8;" x="209.443826" xlink:href="#m865b973299" y="228.196446"/>
     <use style="fill:#4c72b0;fill-opacity:0.8;stroke:#4c72b0;stroke-opacity:0.8;" x="237.419117" xlink:href="#m865b973299" y="198.996273"/>
     <use style="fill:#4c72b0;fill-opacity:0.8;stroke:#4c72b0;stroke-opacity:0.8;" x="248.578347" xlink:href="#m865b973299" y="172.218247"/>
     <use style="fill:#4c72b0;fill-opacity:0.8;stroke:#4c72b0;stroke-opacity:0.8;" x="235.164532" xlink:href="#m865b973299" y="199.078281"/>
     <use style="fill:#4c72b0;fill-opacity:0.8;stroke:#4c72b0;stroke-opacity:0.8;" x="236.9862" xlink:href="#m865b973299" y="146.755547"/>
     <use style="fill:#4c72b0;fill-opacity:0.8;stroke:#4c72b0;stroke-opacity:0.8;" x="239.841831" xlink:href="#m865b973299" y="197.251722"/>
     <use style="fill:#4c72b0;fill-opacity:0.8;stroke:#4c72b0;stroke-opacity:0.8;" x="186.577433" xlink:href="#m865b973299" y="239.233092"/>
     <use style="fill:#4c72b0;fill-opacity:0.8;stroke:#4c72b0;stroke-opacity:0.8;" x="285.628894" xlink:href="#m865b973299" y="144.898964"/>
     <use style="fill:#4c72b0;fill-opacity:0.8;stroke:#4c72b0;stroke-opacity:0.8;" x="237.493265" xlink:href="#m865b973299" y="193.629562"/>
     <use style="fill:#4c72b0;fill-opacity:0.8;stroke:#4c72b0;stroke-opacity:0.8;" x="230.567782" xlink:href="#m865b973299" y="107.823382"/>
     <use style="fill:#4c72b0;fill-opacity:0.8;stroke:#4c72b0;stroke-opacity:0.8;" x="236.179942" xlink:href="#m865b973299" y="192.907121"/>
     <use style="fill:#4c72b0;fill-opacity:0.8;stroke:#4c72b0;stroke-opacity:0.8;" x="229.189033" xlink:href="#m865b973299" y="155.631958"/>
     <use style="fill:#4c72b0;fill-opacity:0.8;stroke:#4c72b0;stroke-opacity:0.8;" x="252.395621" xlink:href="#m865b973299" y="203.326336"/>
     <use style="fill:#4c72b0;fill-opacity:0.8;stroke:#4c72b0;stroke-opacity:0.8;" x="231.304244" xlink:href="#m865b973299" y="174.997192"/>
     <use style="fill:#4c72b0;fill-opacity:0.8;stroke:#4c72b0;stroke-opacity:0.8;" x="236.168776" xlink:href="#m865b973299" y="184.673754"/>
     <use style="fill:#4c72b0;fill-opacity:0.8;stroke:#4c72b0;stroke-opacity:0.8;" x="214.919495" xlink:href="#m865b973299" y="214.551116"/>
     <use style="fill:#4c72b0;fill-opacity:0.8;stroke:#4c72b0;stroke-opacity:0.8;" x="255.225781" xlink:href="#m865b973299" y="169.263869"/>
     <use style="fill:#4c72b0;fill-opacity:0.8;stroke:#4c72b0;stroke-opacity:0.8;" x="234.725248" xlink:href="#m865b973299" y="204.506456"/>
     <use style="fill:#4c72b0;fill-opacity:0.8;stroke:#4c72b0;stroke-opacity:0.8;" x="276.205935" xlink:href="#m865b973299" y="188.697336"/>
     <use style="fill:#4c72b0;fill-opacity:0.8;stroke:#4c72b0;stroke-opacity:0.8;" x="205.937594" xlink:href="#m865b973299" y="177.967597"/>
     <use style="fill:#4c72b0;fill-opacity:0.8;stroke:#4c72b0;stroke-opacity:0.8;" x="158.745536" xlink:href="#m865b973299" y="255.15434"/>
     <use style="fill:#4c72b0;fill-opacity:0.8;stroke:#4c72b0;stroke-opacity:0.8;" x="260.177089" xlink:href="#m865b973299" y="194.97812"/>
     <use style="fill:#4c72b0;fill-opacity:0.8;stroke:#4c72b0;stroke-opacity:0.8;" x="254.361183" xlink:href="#m865b973299" y="199.504585"/>
     <use style="fill:#4c72b0;fill-opacity:0.8;stroke:#4c72b0;stroke-opacity:0.8;" x="242.438948" xlink:href="#m865b973299" y="142.603044"/>
     <use style="fill:#4c72b0;fill-opacity:0.8;stroke:#4c72b0;stroke-opacity:0.8;" x="271.584056" xlink:href="#m865b973299" y="177.473309"/>
     <use style="fill:#4c72b0;fill-opacity:0.8;stroke:#4c72b0;stroke-opacity:0.8;" x="234.113365" xlink:href="#m865b973299" y="173.749208"/>
     <use style="fill:#4c72b0;fill-opacity:0.8;stroke:#4c72b0;stroke-opacity:0.8;" x="264.637314" xlink:href="#m865b973299" y="199.941256"/>
     <use style="fill:#4c72b0;fill-opacity:0.8;stroke:#4c72b0;stroke-opacity:0.8;" x="207.688348" xlink:href="#m865b973299" y="176.035095"/>
     <use style="fill:#4c72b0;fill-opacity:0.8;stroke:#4c72b0;stroke-opacity:0.8;" x="240.817231" xlink:href="#m865b973299" y="178.935899"/>
     <use style="fill:#4c72b0;fill-opacity:0.8;stroke:#4c72b0;stroke-opacity:0.8;" x="223.697773" xlink:href="#m865b973299" y="188.928875"/>
     <use style="fill:#4c72b0;fill-opacity:0.8;stroke:#4c72b0;stroke-opacity:0.8;" x="234.002259" xlink:href="#m865b973299" y="168.892778"/>
     <use style="fill:#4c72b0;fill-opacity:0.8;stroke:#4c72b0;stroke-opacity:0.8;" x="152.65069" xlink:href="#m865b973299" y="249.132572"/>
     <use style="fill:#4c72b0;fill-opacity:0.8;stroke:#4c72b0;stroke-opacity:0.8;" x="272.719574" xlink:href="#m865b973299" y="175.589419"/>
     <use style="fill:#4c72b0;fill-opacity:0.8;stroke:#4c72b0;stroke-opacity:0.8;" x="287.155428" xlink:href="#m865b973299" y="168.319024"/>
     <use style="fill:#4c72b0;fill-opacity:0.8;stroke:#4c72b0;stroke-opacity:0.8;" x="243.437927" xlink:href="#m865b973299" y="185.166198"/>
     <use style="fill:#4c72b0;fill-opacity:0.8;stroke:#4c72b0;stroke-opacity:0.8;" x="239.145591" xlink:href="#m865b973299" y="148.631525"/>
     <use style="fill:#4c72b0;fill-opacity:0.8;stroke:#4c72b0;stroke-opacity:0.8;" x="227.890756" xlink:href="#m865b973299" y="181.540703"/>
     <use style="fill:#4c72b0;fill-opacity:0.8;stroke:#4c72b0;stroke-opacity:0.8;" x="245.497296" xlink:href="#m865b973299" y="192.19672"/>
     <use style="fill:#4c72b0;fill-opacity:0.8;stroke:#4c72b0;stroke-opacity:0.8;" x="239.964947" xlink:href="#m865b973299" y="168.407883"/>
     <use style="fill:#4c72b0;fill-opacity:0.8;stroke:#4c72b0;stroke-opacity:0.8;" x="253.128988" xlink:href="#m865b973299" y="174.124809"/>
     <use style="fill:#4c72b0;fill-opacity:0.8;stroke:#4c72b0;stroke-opacity:0.8;" x="246.308648" xlink:href="#m865b973299" y="212.464044"/>
     <use style="fill:#4c72b0;fill-opacity:0.8;stroke:#4c72b0;stroke-opacity:0.8;" x="218.680947" xlink:href="#m865b973299" y="189.062597"/>
     <use style="fill:#4c72b0;fill-opacity:0.8;stroke:#4c72b0;stroke-opacity:0.8;" x="253.901242" xlink:href="#m865b973299" y="166.537033"/>
     <use style="fill:#4c72b0;fill-opacity:0.8;stroke:#4c72b0;stroke-opacity:0.8;" x="223.515343" xlink:href="#m865b973299" y="181.868581"/>
     <use style="fill:#4c72b0;fill-opacity:0.8;stroke:#4c72b0;stroke-opacity:0.8;" x="287.323907" xlink:href="#m865b973299" y="149.249745"/>
     <use style="fill:#4c72b0;fill-opacity:0.8;stroke:#4c72b0;stroke-opacity:0.8;" x="237.866765" xlink:href="#m865b973299" y="156.111988"/>
     <use style="fill:#4c72b0;fill-opacity:0.8;stroke:#4c72b0;stroke-opacity:0.8;" x="265.544726" xlink:href="#m865b973299" y="155.224976"/>
     <use style="fill:#4c72b0;fill-opacity:0.8;stroke:#4c72b0;stroke-opacity:0.8;" x="254.654651" xlink:href="#m865b973299" y="222.167965"/>
     <use style="fill:#4c72b0;fill-opacity:0.8;stroke:#4c72b0;stroke-opacity:0.8;" x="254.951616" xlink:href="#m865b973299" y="182.296727"/>
     <use style="fill:#4c72b0;fill-opacity:0.8;stroke:#4c72b0;stroke-opacity:0.8;" x="237.403926" xlink:href="#m865b973299" y="225.68029"/>
     <use style="fill:#4c72b0;fill-opacity:0.8;stroke:#4c72b0;stroke-opacity:0.8;" x="262.392036" xlink:href="#m865b973299" y="177.027567"/>
     <use style="fill:#4c72b0;fill-opacity:0.8;stroke:#4c72b0;stroke-opacity:0.8;" x="276.001905" xlink:href="#m865b973299" y="118.494052"/>
     <use style="fill:#4c72b0;fill-opacity:0.8;stroke:#4c72b0;stroke-opacity:0.8;" x="237.385878" xlink:href="#m865b973299" y="169.191675"/>
     <use style="fill:#4c72b0;fill-opacity:0.8;stroke:#4c72b0;stroke-opacity:0.8;" x="254.512596" xlink:href="#m865b973299" y="175.289174"/>
     <use style="fill:#4c72b0;fill-opacity:0.8;stroke:#4c72b0;stroke-opacity:0.8;" x="256.143773" xlink:href="#m865b973299" y="170.822371"/>
     <use style="fill:#4c72b0;fill-opacity:0.8;stroke:#4c72b0;stroke-opacity:0.8;" x="272.37725" xlink:href="#m865b973299" y="185.538214"/>
     <use style="fill:#4c72b0;fill-opacity:0.8;stroke:#4c72b0;stroke-opacity:0.8;" x="240.628823" xlink:href="#m865b973299" y="161.649473"/>
     <use style="fill:#4c72b0;fill-opacity:0.8;stroke:#4c72b0;stroke-opacity:0.8;" x="244.423312" xlink:href="#m865b973299" y="169.887519"/>
     <use style="fill:#4c72b0;fill-opacity:0.8;stroke:#4c72b0;stroke-opacity:0.8;" x="230.392689" xlink:href="#m865b973299" y="197.934574"/>
     <use style="fill:#4c72b0;fill-opacity:0.8;stroke:#4c72b0;stroke-opacity:0.8;" x="232.049826" xlink:href="#m865b973299" y="152.031735"/>
     <use style="fill:#4c72b0;fill-opacity:0.8;stroke:#4c72b0;stroke-opacity:0.8;" x="259.853627" xlink:href="#m865b973299" y="168.704491"/>
     <use style="fill:#4c72b0;fill-opacity:0.8;stroke:#4c72b0;stroke-opacity:0.8;" x="268.928182" xlink:href="#m865b973299" y="194.052245"/>
     <use style="fill:#4c72b0;fill-opacity:0.8;stroke:#4c72b0;stroke-opacity:0.8;" x="247.23642" xlink:href="#m865b973299" y="182.200874"/>
     <use style="fill:#4c72b0;fill-opacity:0.8;stroke:#4c72b0;stroke-opacity:0.8;" x="208.233905" xlink:href="#m865b973299" y="174.531413"/>
     <use style="fill:#4c72b0;fill-opacity:0.8;stroke:#4c72b0;stroke-opacity:0.8;" x="232.289836" xlink:href="#m865b973299" y="162.499299"/>
     <use style="fill:#4c72b0;fill-opacity:0.8;stroke:#4c72b0;stroke-opacity:0.8;" x="258.375151" xlink:href="#m865b973299" y="165.03754"/>
     <use style="fill:#4c72b0;fill-opacity:0.8;stroke:#4c72b0;stroke-opacity:0.8;" x="269.653847" xlink:href="#m865b973299" y="143.78796"/>
     <use style="fill:#4c72b0;fill-opacity:0.8;stroke:#4c72b0;stroke-opacity:0.8;" x="231.160014" xlink:href="#m865b973299" y="153.56183"/>
     <use style="fill:#4c72b0;fill-opacity:0.8;stroke:#4c72b0;stroke-opacity:0.8;" x="272.936033" xlink:href="#m865b973299" y="156.018404"/>
     <use style="fill:#4c72b0;fill-opacity:0.8;stroke:#4c72b0;stroke-opacity:0.8;" x="256.412956" xlink:href="#m865b973299" y="188.854341"/>
     <use style="fill:#4c72b0;fill-opacity:0.8;stroke:#4c72b0;stroke-opacity:0.8;" x="211.629161" xlink:href="#m865b973299" y="191.644185"/>
     <use style="fill:#4c72b0;fill-opacity:0.8;stroke:#4c72b0;stroke-opacity:0.8;" x="236.323708" xlink:href="#m865b973299" y="191.056167"/>
     <use style="fill:#4c72b0;fill-opacity:0.8;stroke:#4c72b0;stroke-opacity:0.8;" x="250.740928" xlink:href="#m865b973299" y="134.180631"/>
     <use style="fill:#4c72b0;fill-opacity:0.8;stroke:#4c72b0;stroke-opacity:0.8;" x="266.815087" xlink:href="#m865b973299" y="207.115142"/>
     <use style="fill:#4c72b0;fill-opacity:0.8;stroke:#4c72b0;stroke-opacity:0.8;" x="243.813267" xlink:href="#m865b973299" y="207.115142"/>
     <use style="fill:#4c72b0;fill-opacity:0.8;stroke:#4c72b0;stroke-opacity:0.8;" x="271.21171" xlink:href="#m865b973299" y="144.186523"/>
     <use style="fill:#4c72b0;fill-opacity:0.8;stroke:#4c72b0;stroke-opacity:0.8;" x="247.577827" xlink:href="#m865b973299" y="197.251722"/>
     <use style="fill:#4c72b0;fill-opacity:0.8;stroke:#4c72b0;stroke-opacity:0.8;" x="203.942437" xlink:href="#m865b973299" y="217.867158"/>
     <use style="fill:#4c72b0;fill-opacity:0.8;stroke:#4c72b0;stroke-opacity:0.8;" x="205.198586" xlink:href="#m865b973299" y="180.078519"/>
     <use style="fill:#4c72b0;fill-opacity:0.8;stroke:#4c72b0;stroke-opacity:0.8;" x="256.322635" xlink:href="#m865b973299" y="172.793019"/>
     <use style="fill:#4c72b0;fill-opacity:0.8;stroke:#4c72b0;stroke-opacity:0.8;" x="263.574342" xlink:href="#m865b973299" y="166.173969"/>
     <use style="fill:#4c72b0;fill-opacity:0.8;stroke:#4c72b0;stroke-opacity:0.8;" x="262.086446" xlink:href="#m865b973299" y="156.48292"/>
     <use style="fill:#4c72b0;fill-opacity:0.8;stroke:#4c72b0;stroke-opacity:0.8;" x="253.123084" xlink:href="#m865b973299" y="166.930839"/>
     <use style="fill:#4c72b0;fill-opacity:0.8;stroke:#4c72b0;stroke-opacity:0.8;" x="200.088162" xlink:href="#m865b973299" y="257.316818"/>
     <use style="fill:#4c72b0;fill-opacity:0.8;stroke:#4c72b0;stroke-opacity:0.8;" x="179.541988" xlink:href="#m865b973299" y="223.028126"/>
     <use style="fill:#4c72b0;fill-opacity:0.8;stroke:#4c72b0;stroke-opacity:0.8;" x="251.622237" xlink:href="#m865b973299" y="223.57685"/>
     <use style="fill:#4c72b0;fill-opacity:0.8;stroke:#4c72b0;stroke-opacity:0.8;" x="258.928134" xlink:href="#m865b973299" y="166.217286"/>
     <use style="fill:#4c72b0;fill-opacity:0.8;stroke:#4c72b0;stroke-opacity:0.8;" x="229.675078" xlink:href="#m865b973299" y="192.350518"/>
     <use style="fill:#4c72b0;fill-opacity:0.8;stroke:#4c72b0;stroke-opacity:0.8;" x="264.507453" xlink:href="#m865b973299" y="132.191508"/>
     <use style="fill:#4c72b0;fill-opacity:0.8;stroke:#4c72b0;stroke-opacity:0.8;" x="244.794138" xlink:href="#m865b973299" y="160.039231"/>
     <use style="fill:#4c72b0;fill-opacity:0.8;stroke:#4c72b0;stroke-opacity:0.8;" x="208.022343" xlink:href="#m865b973299" y="244.342766"/>
     <use style="fill:#4c72b0;fill-opacity:0.8;stroke:#4c72b0;stroke-opacity:0.8;" x="246.188623" xlink:href="#m865b973299" y="186.05384"/>
     <use style="fill:#4c72b0;fill-opacity:0.8;stroke:#4c72b0;stroke-opacity:0.8;" x="200.916217" xlink:href="#m865b973299" y="221.104579"/>
     <use style="fill:#4c72b0;fill-opacity:0.8;stroke:#4c72b0;stroke-opacity:0.8;" x="205.188136" xlink:href="#m865b973299" y="214.929554"/>
     <use style="fill:#4c72b0;fill-opacity:0.8;stroke:#4c72b0;stroke-opacity:0.8;" x="222.61573" xlink:href="#m865b973299" y="199.47691"/>
     <use style="fill:#4c72b0;fill-opacity:0.8;stroke:#4c72b0;stroke-opacity:0.8;" x="245.422495" xlink:href="#m865b973299" y="165.859257"/>
     <use style="fill:#4c72b0;fill-opacity:0.8;stroke:#4c72b0;stroke-opacity:0.8;" x="275.967752" xlink:href="#m865b973299" y="146.18705"/>
     <use style="fill:#4c72b0;fill-opacity:0.8;stroke:#4c72b0;stroke-opacity:0.8;" x="261.723372" xlink:href="#m865b973299" y="164.992537"/>
     <use style="fill:#4c72b0;fill-opacity:0.8;stroke:#4c72b0;stroke-opacity:0.8;" x="216.151034" xlink:href="#m865b973299" y="164.680518"/>
     <use style="fill:#4c72b0;fill-opacity:0.8;stroke:#4c72b0;stroke-opacity:0.8;" x="243.642823" xlink:href="#m865b973299" y="210.430347"/>
     <use style="fill:#4c72b0;fill-opacity:0.8;stroke:#4c72b0;stroke-opacity:0.8;" x="215.272946" xlink:href="#m865b973299" y="232.240907"/>
     <use style="fill:#4c72b0;fill-opacity:0.8;stroke:#4c72b0;stroke-opacity:0.8;" x="241.594895" xlink:href="#m865b973299" y="172.909662"/>
     <use style="fill:#4c72b0;fill-opacity:0.8;stroke:#4c72b0;stroke-opacity:0.8;" x="300.905659" xlink:href="#m865b973299" y="141.419336"/>
     <use style="fill:#4c72b0;fill-opacity:0.8;stroke:#4c72b0;stroke-opacity:0.8;" x="254.141067" xlink:href="#m865b973299" y="196.451802"/>
     <use style="fill:#4c72b0;fill-opacity:0.8;stroke:#4c72b0;stroke-opacity:0.8;" x="213.528065" xlink:href="#m865b973299" y="187.78161"/>
     <use style="fill:#4c72b0;fill-opacity:0.8;stroke:#4c72b0;stroke-opacity:0.8;" x="210.523721" xlink:href="#m865b973299" y="160.228671"/>
     <use style="fill:#4c72b0;fill-opacity:0.8;stroke:#4c72b0;stroke-opacity:0.8;" x="212.201786" xlink:href="#m865b973299" y="204.247938"/>
     <use style="fill:#4c72b0;fill-opacity:0.8;stroke:#4c72b0;stroke-opacity:0.8;" x="233.598766" xlink:href="#m865b973299" y="188.019561"/>
     <use style="fill:#4c72b0;fill-opacity:0.8;stroke:#4c72b0;stroke-opacity:0.8;" x="236.881263" xlink:href="#m865b973299" y="194.55226"/>
     <use style="fill:#4c72b0;fill-opacity:0.8;stroke:#4c72b0;stroke-opacity:0.8;" x="295.655257" xlink:href="#m865b973299" y="175.833207"/>
     <use style="fill:#4c72b0;fill-opacity:0.8;stroke:#4c72b0;stroke-opacity:0.8;" x="179.328512" xlink:href="#m865b973299" y="234.086302"/>
     <use style="fill:#4c72b0;fill-opacity:0.8;stroke:#4c72b0;stroke-opacity:0.8;" x="259.966121" xlink:href="#m865b973299" y="143.721953"/>
     <use style="fill:#4c72b0;fill-opacity:0.8;stroke:#4c72b0;stroke-opacity:0.8;" x="182.91364" xlink:href="#m865b973299" y="275.593148"/>
     <use style="fill:#4c72b0;fill-opacity:0.8;stroke:#4c72b0;stroke-opacity:0.8;" x="289.935925" xlink:href="#m865b973299" y="195.565396"/>
     <use style="fill:#4c72b0;fill-opacity:0.8;stroke:#4c72b0;stroke-opacity:0.8;" x="253.606488" xlink:href="#m865b973299" y="212.57548"/>
     <use style="fill:#4c72b0;fill-opacity:0.8;stroke:#4c72b0;stroke-opacity:0.8;" x="273.21994" xlink:href="#m865b973299" y="204.371524"/>
     <use style="fill:#4c72b0;fill-opacity:0.8;stroke:#4c72b0;stroke-opacity:0.8;" x="169.583973" xlink:href="#m865b973299" y="264.051507"/>
     <use style="fill:#4c72b0;fill-opacity:0.8;stroke:#4c72b0;stroke-opacity:0.8;" x="235.921151" xlink:href="#m865b973299" y="196.737109"/>
     <use style="fill:#4c72b0;fill-opacity:0.8;stroke:#4c72b0;stroke-opacity:0.8;" x="252.011753" xlink:href="#m865b973299" y="169.542818"/>
     <use style="fill:#4c72b0;fill-opacity:0.8;stroke:#4c72b0;stroke-opacity:0.8;" x="287.83383" xlink:href="#m865b973299" y="179.033405"/>
     <use style="fill:#4c72b0;fill-opacity:0.8;stroke:#4c72b0;stroke-opacity:0.8;" x="254.411249" xlink:href="#m865b973299" y="215.955689"/>
     <use style="fill:#4c72b0;fill-opacity:0.8;stroke:#4c72b0;stroke-opacity:0.8;" x="236.962416" xlink:href="#m865b973299" y="146.676404"/>
     <use style="fill:#4c72b0;fill-opacity:0.8;stroke:#4c72b0;stroke-opacity:0.8;" x="238.486688" xlink:href="#m865b973299" y="192.853505"/>
     <use style="fill:#4c72b0;fill-opacity:0.8;stroke:#4c72b0;stroke-opacity:0.8;" x="255.606718" xlink:href="#m865b973299" y="225.035169"/>
     <use style="fill:#4c72b0;fill-opacity:0.8;stroke:#4c72b0;stroke-opacity:0.8;" x="125.985503" xlink:href="#m865b973299" y="243.46808"/>
     <use style="fill:#4c72b0;fill-opacity:0.8;stroke:#4c72b0;stroke-opacity:0.8;" x="288.273102" xlink:href="#m865b973299" y="152.74578"/>
     <use style="fill:#4c72b0;fill-opacity:0.8;stroke:#4c72b0;stroke-opacity:0.8;" x="269.274398" xlink:href="#m865b973299" y="169.321805"/>
     <use style="fill:#4c72b0;fill-opacity:0.8;stroke:#4c72b0;stroke-opacity:0.8;" x="237.548189" xlink:href="#m865b973299" y="186.695826"/>
     <use style="fill:#4c72b0;fill-opacity:0.8;stroke:#4c72b0;stroke-opacity:0.8;" x="207.337857" xlink:href="#m865b973299" y="161.649473"/>
     <use style="fill:#4c72b0;fill-opacity:0.8;stroke:#4c72b0;stroke-opacity:0.8;" x="234.795174" xlink:href="#m865b973299" y="156.79203"/>
     <use style="fill:#4c72b0;fill-opacity:0.8;stroke:#4c72b0;stroke-opacity:0.8;" x="206.552932" xlink:href="#m865b973299" y="170.501196"/>
     <use style="fill:#4c72b0;fill-opacity:0.8;stroke:#4c72b0;stroke-opacity:0.8;" x="230.590848" xlink:href="#m865b973299" y="206.4351"/>
     <use style="fill:#4c72b0;fill-opacity:0.8;stroke:#4c72b0;stroke-opacity:0.8;" x="224.401135" xlink:href="#m865b973299" y="209.155268"/>
     <use style="fill:#4c72b0;fill-opacity:0.8;stroke:#4c72b0;stroke-opacity:0.8;" x="220.434429" xlink:href="#m865b973299" y="169.984846"/>
     <use style="fill:#4c72b0;fill-opacity:0.8;stroke:#4c72b0;stroke-opacity:0.8;" x="183.669768" xlink:href="#m865b973299" y="194.194343"/>
     <use style="fill:#4c72b0;fill-opacity:0.8;stroke:#4c72b0;stroke-opacity:0.8;" x="208.793399" xlink:href="#m865b973299" y="206.452101"/>
     <use style="fill:#4c72b0;fill-opacity:0.8;stroke:#4c72b0;stroke-opacity:0.8;" x="244.317174" xlink:href="#m865b973299" y="146.069643"/>
     <use style="fill:#4c72b0;fill-opacity:0.8;stroke:#4c72b0;stroke-opacity:0.8;" x="230.453127" xlink:href="#m865b973299" y="150.785995"/>
     <use style="fill:#4c72b0;fill-opacity:0.8;stroke:#4c72b0;stroke-opacity:0.8;" x="239.686722" xlink:href="#m865b973299" y="169.887519"/>
     <use style="fill:#4c72b0;fill-opacity:0.8;stroke:#4c72b0;stroke-opacity:0.8;" x="189.792284" xlink:href="#m865b973299" y="208.588567"/>
     <use style="fill:#4c72b0;fill-opacity:0.8;stroke:#4c72b0;stroke-opacity:0.8;" x="172.066441" xlink:href="#m865b973299" y="176.735809"/>
     <use style="fill:#4c72b0;fill-opacity:0.8;stroke:#4c72b0;stroke-opacity:0.8;" x="265.280821" xlink:href="#m865b973299" y="230.129789"/>
     <use style="fill:#4c72b0;fill-opacity:0.8;stroke:#4c72b0;stroke-opacity:0.8;" x="212.762817" xlink:href="#m865b973299" y="240.520262"/>
     <use style="fill:#4c72b0;fill-opacity:0.8;stroke:#4c72b0;stroke-opacity:0.8;" x="254.703815" xlink:href="#m865b973299" y="165.91188"/>
     <use style="fill:#4c72b0;fill-opacity:0.8;stroke:#4c72b0;stroke-opacity:0.8;" x="242.509195" xlink:href="#m865b973299" y="163.831825"/>
     <use style="fill:#4c72b0;fill-opacity:0.8;stroke:#4c72b0;stroke-opacity:0.8;" x="256.184547" xlink:href="#m865b973299" y="198.349515"/>
     <use style="fill:#4c72b0;fill-opacity:0.8;stroke:#4c72b0;stroke-opacity:0.8;" x="248.765475" xlink:href="#m865b973299" y="163.317938"/>
     <use style="fill:#4c72b0;fill-opacity:0.8;stroke:#4c72b0;stroke-opacity:0.8;" x="243.47005" xlink:href="#m865b973299" y="147.988917"/>
     <use style="fill:#4c72b0;fill-opacity:0.8;stroke:#4c72b0;stroke-opacity:0.8;" x="246.773418" xlink:href="#m865b973299" y="171.909425"/>
     <use style="fill:#4c72b0;fill-opacity:0.8;stroke:#4c72b0;stroke-opacity:0.8;" x="255.162678" xlink:href="#m865b973299" y="144.155074"/>
     <use style="fill:#4c72b0;fill-opacity:0.8;stroke:#4c72b0;stroke-opacity:0.8;" x="239.628639" xlink:href="#m865b973299" y="163.317938"/>
     <use style="fill:#4c72b0;fill-opacity:0.8;stroke:#4c72b0;stroke-opacity:0.8;" x="246.753806" xlink:href="#m865b973299" y="189.81842"/>
     <use style="fill:#4c72b0;fill-opacity:0.8;stroke:#4c72b0;stroke-opacity:0.8;" x="206.219278" xlink:href="#m865b973299" y="200.391346"/>
     <use style="fill:#4c72b0;fill-opacity:0.8;stroke:#4c72b0;stroke-opacity:0.8;" x="210.488882" xlink:href="#m865b973299" y="153.382988"/>
     <use style="fill:#4c72b0;fill-opacity:0.8;stroke:#4c72b0;stroke-opacity:0.8;" x="265.104174" xlink:href="#m865b973299" y="180.119901"/>
     <use style="fill:#4c72b0;fill-opacity:0.8;stroke:#4c72b0;stroke-opacity:0.8;" x="277.9881" xlink:href="#m865b973299" y="190.065516"/>
     <use style="fill:#4c72b0;fill-opacity:0.8;stroke:#4c72b0;stroke-opacity:0.8;" x="233.614629" xlink:href="#m865b973299" y="191.991232"/>
     <use style="fill:#4c72b0;fill-opacity:0.8;stroke:#4c72b0;stroke-opacity:0.8;" x="249.273185" xlink:href="#m865b973299" y="166.069747"/>
     <use style="fill:#4c72b0;fill-opacity:0.8;stroke:#4c72b0;stroke-opacity:0.8;" x="214.99242" xlink:href="#m865b973299" y="132.27685"/>
     <use style="fill:#4c72b0;fill-opacity:0.8;stroke:#4c72b0;stroke-opacity:0.8;" x="229.567068" xlink:href="#m865b973299" y="164.272493"/>
     <use style="fill:#4c72b0;fill-opacity:0.8;stroke:#4c72b0;stroke-opacity:0.8;" x="195.139735" xlink:href="#m865b973299" y="200.35963"/>
     <use style="fill:#4c72b0;fill-opacity:0.8;stroke:#4c72b0;stroke-opacity:0.8;" x="220.158283" xlink:href="#m865b973299" y="211.618817"/>
     <use style="fill:#4c72b0;fill-opacity:0.8;stroke:#4c72b0;stroke-opacity:0.8;" x="245.870768" xlink:href="#m865b973299" y="190.696984"/>
     <use style="fill:#4c72b0;fill-opacity:0.8;stroke:#4c72b0;stroke-opacity:0.8;" x="189.211919" xlink:href="#m865b973299" y="198.858405"/>
     <use style="fill:#4c72b0;fill-opacity:0.8;stroke:#4c72b0;stroke-opacity:0.8;" x="209.92917" xlink:href="#m865b973299" y="218.794397"/>
     <use style="fill:#4c72b0;fill-opacity:0.8;stroke:#4c72b0;stroke-opacity:0.8;" x="228.825269" xlink:href="#m865b973299" y="150.951669"/>
     <use style="fill:#4c72b0;fill-opacity:0.8;stroke:#4c72b0;stroke-opacity:0.8;" x="225.856806" xlink:href="#m865b973299" y="214.7257"/>
     <use style="fill:#4c72b0;fill-opacity:0.8;stroke:#4c72b0;stroke-opacity:0.8;" x="249.467008" xlink:href="#m865b973299" y="162.25407"/>
     <use style="fill:#4c72b0;fill-opacity:0.8;stroke:#4c72b0;stroke-opacity:0.8;" x="242.172198" xlink:href="#m865b973299" y="137.600527"/>
     <use style="fill:#4c72b0;fill-opacity:0.8;stroke:#4c72b0;stroke-opacity:0.8;" x="248.148474" xlink:href="#m865b973299" y="199.30073"/>
     <use style="fill:#4c72b0;fill-opacity:0.8;stroke:#4c72b0;stroke-opacity:0.8;" x="204.241925" xlink:href="#m865b973299" y="199.30073"/>
    </g>
   </g>
   <g id="PolyCollection_1">
    <defs>
     <path d="M 103.47618 -166.582431 
L 103.47618 -125.681298 
L 105.470417 -127.136034 
L 107.464655 -128.590771 
L 109.458892 -130.045507 
L 111.453129 -131.500244 
L 113.447366 -132.916591 
L 115.441603 -134.307581 
L 117.43584 -135.698572 
L 119.430078 -137.090686 
L 121.424315 -138.482952 
L 123.418552 -139.875219 
L 125.412789 -141.267486 
L 127.407026 -142.659752 
L 129.401263 -144.052019 
L 131.3955 -145.444285 
L 133.389738 -146.871337 
L 135.383975 -148.324456 
L 137.378212 -149.71769 
L 139.372449 -151.110925 
L 141.366686 -152.504159 
L 143.360923 -153.897394 
L 145.355161 -155.290628 
L 147.349398 -156.683863 
L 149.343635 -158.077097 
L 151.337872 -159.470332 
L 153.332109 -160.863566 
L 155.326346 -162.256801 
L 157.320584 -163.650035 
L 159.314821 -165.043269 
L 161.309058 -166.436504 
L 163.303295 -167.780919 
L 165.297532 -169.120884 
L 167.291769 -170.563465 
L 169.286007 -172.008441 
L 171.280244 -173.40627 
L 173.274481 -174.868016 
L 175.268718 -176.334209 
L 177.262955 -177.787414 
L 179.257192 -179.23058 
L 181.251429 -180.673746 
L 183.245667 -182.116911 
L 185.239904 -183.522037 
L 187.234141 -184.87854 
L 189.228378 -186.185423 
L 191.222615 -187.551674 
L 193.216852 -188.952107 
L 195.21109 -190.4341 
L 197.205327 -191.838726 
L 199.199564 -193.208011 
L 201.193801 -194.649284 
L 203.188038 -196.099868 
L 205.182275 -197.48332 
L 207.176513 -198.865809 
L 209.17075 -200.232151 
L 211.164987 -201.530327 
L 213.159224 -202.923486 
L 215.153461 -204.282049 
L 217.147698 -205.633952 
L 219.141936 -206.975652 
L 221.136173 -208.318987 
L 223.13041 -209.664495 
L 225.124647 -210.987273 
L 227.118884 -212.253097 
L 229.113121 -213.580611 
L 231.107358 -214.8264 
L 233.101596 -216.071509 
L 235.095833 -217.237524 
L 237.09007 -218.363092 
L 239.084307 -219.584528 
L 241.078544 -220.711793 
L 243.072781 -221.805228 
L 245.067019 -222.926997 
L 247.061256 -224.035982 
L 249.055493 -225.040159 
L 251.04973 -226.031648 
L 253.043967 -226.939055 
L 255.038204 -227.867318 
L 257.032442 -228.84349 
L 259.026679 -229.874961 
L 261.020916 -230.977544 
L 263.015153 -232.044772 
L 265.00939 -233.000559 
L 267.003627 -233.91759 
L 268.997864 -234.87713 
L 270.992102 -235.829022 
L 272.986339 -236.828416 
L 274.980576 -237.638645 
L 276.974813 -238.55852 
L 278.96905 -239.51641 
L 280.963287 -240.336824 
L 282.957525 -241.20424 
L 284.951762 -242.084892 
L 286.945999 -243.042863 
L 288.940236 -243.967136 
L 290.934473 -244.87063 
L 292.92871 -245.798325 
L 294.922948 -246.738951 
L 296.917185 -247.704257 
L 298.911422 -248.619416 
L 300.905659 -249.556307 
L 300.905659 -267.720207 
L 300.905659 -267.720207 
L 298.911422 -266.348741 
L 296.917185 -264.983064 
L 294.922948 -263.58577 
L 292.92871 -262.310538 
L 290.934473 -260.861162 
L 288.940236 -259.45316 
L 286.945999 -258.114386 
L 284.951762 -256.702568 
L 282.957525 -255.31867 
L 280.963287 -254.003355 
L 278.96905 -252.678263 
L 276.974813 -251.253441 
L 274.980576 -249.808979 
L 272.986339 -248.371496 
L 270.992102 -247.012161 
L 268.997864 -245.676604 
L 267.003627 -244.300496 
L 265.00939 -242.922637 
L 263.015153 -241.583598 
L 261.020916 -240.294303 
L 259.026679 -239.059093 
L 257.032442 -237.807865 
L 255.038204 -236.556908 
L 253.043967 -235.358111 
L 251.04973 -234.11911 
L 249.055493 -232.860016 
L 247.061256 -231.505824 
L 245.067019 -230.217688 
L 243.072781 -229.098244 
L 241.078544 -227.934508 
L 239.084307 -226.835495 
L 237.09007 -225.676971 
L 235.095833 -224.491177 
L 233.101596 -223.478908 
L 231.107358 -222.470472 
L 229.113121 -221.482082 
L 227.118884 -220.485414 
L 225.124647 -219.549545 
L 223.13041 -218.499053 
L 221.136173 -217.480367 
L 219.141936 -216.525385 
L 217.147698 -215.600623 
L 215.153461 -214.719395 
L 213.159224 -213.769002 
L 211.164987 -212.806774 
L 209.17075 -211.988717 
L 207.176513 -210.999783 
L 205.182275 -210.038503 
L 203.188038 -209.211388 
L 201.193801 -208.334398 
L 199.199564 -207.466013 
L 197.205327 -206.606842 
L 195.21109 -205.755923 
L 193.216852 -204.905003 
L 191.222615 -204.049921 
L 189.228378 -203.11096 
L 187.234141 -202.280859 
L 185.239904 -201.41823 
L 183.245667 -200.505032 
L 181.251429 -199.704725 
L 179.257192 -198.92538 
L 177.262955 -198.068311 
L 175.268718 -197.171732 
L 173.274481 -196.331512 
L 171.280244 -195.544891 
L 169.286007 -194.693972 
L 167.291769 -193.843053 
L 165.297532 -192.992133 
L 163.303295 -192.141214 
L 161.309058 -191.290295 
L 159.314821 -190.439376 
L 157.320584 -189.587574 
L 155.326346 -188.735532 
L 153.332109 -187.883489 
L 151.337872 -187.031447 
L 149.343635 -186.179405 
L 147.349398 -185.33411 
L 145.355161 -184.483575 
L 143.360923 -183.623278 
L 141.366686 -182.771235 
L 139.372449 -181.919193 
L 137.378212 -181.067151 
L 135.383975 -180.215108 
L 133.389738 -179.363066 
L 131.3955 -178.511024 
L 129.401263 -177.658981 
L 127.407026 -176.806939 
L 125.412789 -175.954896 
L 123.418552 -175.102854 
L 121.424315 -174.250812 
L 119.430078 -173.398769 
L 117.43584 -172.546727 
L 115.441603 -171.694685 
L 113.447366 -170.842642 
L 111.453129 -169.9906 
L 109.458892 -169.138558 
L 107.464655 -168.286515 
L 105.470417 -167.434473 
L 103.47618 -166.582431 
z
" id="m96ba8f2643" style="stroke:#ffffff;stroke-opacity:0.15;stroke-width:1.5;"/>
    </defs>
    <g clip-path="url(#pf2de049fc7)">
     <use style="fill:#4c72b0;fill-opacity:0.15;stroke:#ffffff;stroke-opacity:0.15;stroke-width:1.5;" x="0" xlink:href="#m96ba8f2643" y="406.501641"/>
    </g>
   </g>
   <g id="line2d_12">
    <path clip-path="url(#pf2de049fc7)" d="M 103.47618 262.552404 
L 105.470417 261.389365 
L 107.464655 260.226326 
L 109.458892 259.063287 
L 111.453129 257.900248 
L 113.447366 256.737208 
L 115.441603 255.574169 
L 117.43584 254.41113 
L 119.430078 253.248091 
L 121.424315 252.085052 
L 123.418552 250.922013 
L 125.412789 249.758974 
L 127.407026 248.595935 
L 129.401263 247.432895 
L 131.3955 246.269856 
L 133.389738 245.106817 
L 135.383975 243.943778 
L 137.378212 242.780739 
L 139.372449 241.6177 
L 141.366686 240.454661 
L 143.360923 239.291622 
L 145.355161 238.128582 
L 147.349398 236.965543 
L 149.343635 235.802504 
L 151.337872 234.639465 
L 153.332109 233.476426 
L 155.326346 232.313387 
L 157.320584 231.150348 
L 159.314821 229.987309 
L 161.309058 228.824269 
L 163.303295 227.66123 
L 165.297532 226.498191 
L 167.291769 225.335152 
L 169.286007 224.172113 
L 171.280244 223.009074 
L 173.274481 221.846035 
L 175.268718 220.682996 
L 177.262955 219.519956 
L 179.257192 218.356917 
L 181.251429 217.193878 
L 183.245667 216.030839 
L 185.239904 214.8678 
L 187.234141 213.704761 
L 189.228378 212.541722 
L 191.222615 211.378683 
L 193.216852 210.215643 
L 195.21109 209.052604 
L 197.205327 207.889565 
L 199.199564 206.726526 
L 201.193801 205.563487 
L 203.188038 204.400448 
L 205.182275 203.237409 
L 207.176513 202.07437 
L 209.17075 200.91133 
L 211.164987 199.748291 
L 213.159224 198.585252 
L 215.153461 197.422213 
L 217.147698 196.259174 
L 219.141936 195.096135 
L 221.136173 193.933096 
L 223.13041 192.770057 
L 225.124647 191.607017 
L 227.118884 190.443978 
L 229.113121 189.280939 
L 231.107358 188.1179 
L 233.101596 186.954861 
L 235.095833 185.791822 
L 237.09007 184.628783 
L 239.084307 183.465744 
L 241.078544 182.302704 
L 243.072781 181.139665 
L 245.067019 179.976626 
L 247.061256 178.813587 
L 249.055493 177.650548 
L 251.04973 176.487509 
L 253.043967 175.32447 
L 255.038204 174.161431 
L 257.032442 172.998391 
L 259.026679 171.835352 
L 261.020916 170.672313 
L 263.015153 169.509274 
L 265.00939 168.346235 
L 267.003627 167.183196 
L 268.997864 166.020157 
L 270.992102 164.857118 
L 272.986339 163.694079 
L 274.980576 162.531039 
L 276.974813 161.368 
L 278.96905 160.204961 
L 280.963287 159.041922 
L 282.957525 157.878883 
L 284.951762 156.715844 
L 286.945999 155.552805 
L 288.940236 154.389766 
L 290.934473 153.226726 
L 292.92871 152.063687 
L 294.922948 150.900648 
L 296.917185 149.737609 
L 298.911422 148.57457 
L 300.905659 147.411531 
" style="fill:none;stroke:#4c72b0;stroke-linecap:round;stroke-width:3.375;"/>
   </g>
   <g id="patch_3">
    <path d="M 63.096563 350.82 
L 63.096563 66.106286 
" style="fill:none;stroke:#262626;stroke-linecap:square;stroke-linejoin:miter;stroke-width:1.875;"/>
   </g>
   <g id="patch_4">
    <path d="M 63.096563 350.82 
L 341.285277 350.82 
" style="fill:none;stroke:#262626;stroke-linecap:square;stroke-linejoin:miter;stroke-width:1.875;"/>
   </g>
  </g>
  <g id="axes_2">
   <g id="patch_5">
    <path d="M 63.096563 56.288571 
L 341.285277 56.288571 
L 341.285277 7.2 
L 63.096563 7.2 
z
" style="fill:#ffffff;"/>
   </g>
   <g id="matplotlib.axis_3">
    <g id="xtick_5">
     <g id="line2d_13">
      <g>
       <use style="fill:#262626;stroke:#262626;stroke-width:1.875;" x="108.264519" xlink:href="#m9063feffa9" y="56.288571"/>
      </g>
     </g>
    </g>
    <g id="xtick_6">
     <g id="line2d_14">
      <g>
       <use style="fill:#262626;stroke:#262626;stroke-width:1.875;" x="180.321754" xlink:href="#m9063feffa9" y="56.288571"/>
      </g>
     </g>
    </g>
    <g id="xtick_7">
     <g id="line2d_15">
      <g>
       <use style="fill:#262626;stroke:#262626;stroke-width:1.875;" x="252.378989" xlink:href="#m9063feffa9" y="56.288571"/>
      </g>
     </g>
    </g>
    <g id="xtick_8">
     <g id="line2d_16">
      <g>
       <use style="fill:#262626;stroke:#262626;stroke-width:1.875;" x="324.436224" xlink:href="#m9063feffa9" y="56.288571"/>
      </g>
     </g>
    </g>
   </g>
   <g id="matplotlib.axis_4">
    <g id="ytick_8"/>
    <g id="ytick_9"/>
   </g>
   <g id="patch_6">
    <path clip-path="url(#p6e2ecd7009)" d="M 103.47618 56.288571 
L 114.444485 56.288571 
L 114.444485 55.175452 
L 103.47618 55.175452 
z
" style="fill:#4c72b0;opacity:0.4;stroke:#ffffff;stroke-linejoin:miter;stroke-width:1.5;"/>
   </g>
   <g id="patch_7">
    <path clip-path="url(#p6e2ecd7009)" d="M 114.444485 56.288571 
L 125.412789 56.288571 
L 125.412789 56.288571 
L 114.444485 56.288571 
z
" style="fill:#4c72b0;opacity:0.4;stroke:#ffffff;stroke-linejoin:miter;stroke-width:1.5;"/>
   </g>
   <g id="patch_8">
    <path clip-path="url(#p6e2ecd7009)" d="M 125.412789 56.288571 
L 136.381093 56.288571 
L 136.381093 55.175452 
L 125.412789 55.175452 
z
" style="fill:#4c72b0;opacity:0.4;stroke:#ffffff;stroke-linejoin:miter;stroke-width:1.5;"/>
   </g>
   <g id="patch_9">
    <path clip-path="url(#p6e2ecd7009)" d="M 136.381093 56.288571 
L 147.349398 56.288571 
L 147.349398 55.175452 
L 136.381093 55.175452 
z
" style="fill:#4c72b0;opacity:0.4;stroke:#ffffff;stroke-linejoin:miter;stroke-width:1.5;"/>
   </g>
   <g id="patch_10">
    <path clip-path="url(#p6e2ecd7009)" d="M 147.349398 56.288571 
L 158.317702 56.288571 
L 158.317702 54.062332 
L 147.349398 54.062332 
z
" style="fill:#4c72b0;opacity:0.4;stroke:#ffffff;stroke-linejoin:miter;stroke-width:1.5;"/>
   </g>
   <g id="patch_11">
    <path clip-path="url(#p6e2ecd7009)" d="M 158.317702 56.288571 
L 169.286007 56.288571 
L 169.286007 54.062332 
L 158.317702 54.062332 
z
" style="fill:#4c72b0;opacity:0.4;stroke:#ffffff;stroke-linejoin:miter;stroke-width:1.5;"/>
   </g>
   <g id="patch_12">
    <path clip-path="url(#p6e2ecd7009)" d="M 169.286007 56.288571 
L 180.254311 56.288571 
L 180.254311 51.836093 
L 169.286007 51.836093 
z
" style="fill:#4c72b0;opacity:0.4;stroke:#ffffff;stroke-linejoin:miter;stroke-width:1.5;"/>
   </g>
   <g id="patch_13">
    <path clip-path="url(#p6e2ecd7009)" d="M 180.254311 56.288571 
L 191.222615 56.288571 
L 191.222615 50.722974 
L 180.254311 50.722974 
z
" style="fill:#4c72b0;opacity:0.4;stroke:#ffffff;stroke-linejoin:miter;stroke-width:1.5;"/>
   </g>
   <g id="patch_14">
    <path clip-path="url(#p6e2ecd7009)" d="M 191.222615 56.288571 
L 202.19092 56.288571 
L 202.19092 51.836093 
L 191.222615 51.836093 
z
" style="fill:#4c72b0;opacity:0.4;stroke:#ffffff;stroke-linejoin:miter;stroke-width:1.5;"/>
   </g>
   <g id="patch_15">
    <path clip-path="url(#p6e2ecd7009)" d="M 202.19092 56.288571 
L 213.159224 56.288571 
L 213.159224 34.026181 
L 202.19092 34.026181 
z
" style="fill:#4c72b0;opacity:0.4;stroke:#ffffff;stroke-linejoin:miter;stroke-width:1.5;"/>
   </g>
   <g id="patch_16">
    <path clip-path="url(#p6e2ecd7009)" d="M 213.159224 56.288571 
L 224.127528 56.288571 
L 224.127528 37.365539 
L 213.159224 37.365539 
z
" style="fill:#4c72b0;opacity:0.4;stroke:#ffffff;stroke-linejoin:miter;stroke-width:1.5;"/>
   </g>
   <g id="patch_17">
    <path clip-path="url(#p6e2ecd7009)" d="M 224.127528 56.288571 
L 235.095833 56.288571 
L 235.095833 26.234344 
L 224.127528 26.234344 
z
" style="fill:#4c72b0;opacity:0.4;stroke:#ffffff;stroke-linejoin:miter;stroke-width:1.5;"/>
   </g>
   <g id="patch_18">
    <path clip-path="url(#p6e2ecd7009)" d="M 235.095833 56.288571 
L 246.064137 56.288571 
L 246.064137 9.537551 
L 235.095833 9.537551 
z
" style="fill:#4c72b0;opacity:0.4;stroke:#ffffff;stroke-linejoin:miter;stroke-width:1.5;"/>
   </g>
   <g id="patch_19">
    <path clip-path="url(#p6e2ecd7009)" d="M 246.064137 56.288571 
L 257.032442 56.288571 
L 257.032442 16.216268 
L 246.064137 16.216268 
z
" style="fill:#4c72b0;opacity:0.4;stroke:#ffffff;stroke-linejoin:miter;stroke-width:1.5;"/>
   </g>
   <g id="patch_20">
    <path clip-path="url(#p6e2ecd7009)" d="M 257.032442 56.288571 
L 268.000746 56.288571 
L 268.000746 36.25242 
L 257.032442 36.25242 
z
" style="fill:#4c72b0;opacity:0.4;stroke:#ffffff;stroke-linejoin:miter;stroke-width:1.5;"/>
   </g>
   <g id="patch_21">
    <path clip-path="url(#p6e2ecd7009)" d="M 268.000746 56.288571 
L 278.96905 56.288571 
L 278.96905 39.591778 
L 268.000746 39.591778 
z
" style="fill:#4c72b0;opacity:0.4;stroke:#ffffff;stroke-linejoin:miter;stroke-width:1.5;"/>
   </g>
   <g id="patch_22">
    <path clip-path="url(#p6e2ecd7009)" d="M 278.96905 56.288571 
L 289.937355 56.288571 
L 289.937355 49.609854 
L 278.96905 49.609854 
z
" style="fill:#4c72b0;opacity:0.4;stroke:#ffffff;stroke-linejoin:miter;stroke-width:1.5;"/>
   </g>
   <g id="patch_23">
    <path clip-path="url(#p6e2ecd7009)" d="M 289.937355 56.288571 
L 300.905659 56.288571 
L 300.905659 54.062332 
L 289.937355 54.062332 
z
" style="fill:#4c72b0;opacity:0.4;stroke:#ffffff;stroke-linejoin:miter;stroke-width:1.5;"/>
   </g>
   <g id="line2d_17">
    <path clip-path="url(#p6e2ecd7009)" d="M 75.741504 56.278715 
L 87.68948 56.16454 
L 107.602774 55.738944 
L 119.55075 55.749745 
L 137.472715 55.485519 
L 143.446703 55.058788 
L 157.386009 53.782884 
L 171.325314 52.777898 
L 181.281961 51.714848 
L 185.26462 51.164321 
L 187.255949 50.785921 
L 189.247279 50.287167 
L 191.238608 49.62778 
L 193.229937 48.776622 
L 195.221267 47.721088 
L 197.212596 46.474241 
L 201.195255 43.595671 
L 205.177914 40.696998 
L 207.169243 39.421715 
L 209.160572 38.31515 
L 213.143231 36.538567 
L 217.12589 34.878619 
L 219.117219 33.853272 
L 221.108549 32.586789 
L 223.099878 31.038245 
L 225.091208 29.215224 
L 229.073866 25.027312 
L 231.065196 22.901462 
L 233.056525 20.943895 
L 235.047854 19.286977 
L 237.039184 18.031751 
L 239.030513 17.23606 
L 241.021843 16.912011 
L 243.013172 17.032516 
L 245.004501 17.544166 
L 246.995831 18.382299 
L 248.98716 19.483994 
L 250.978489 20.796069 
L 254.961148 23.89587 
L 258.943807 27.440957 
L 272.883113 40.592109 
L 276.865771 43.867361 
L 278.857101 45.314687 
L 280.84843 46.613557 
L 282.83976 47.76067 
L 286.822418 49.645568 
L 290.805077 51.134995 
L 294.787736 52.401212 
L 298.770395 53.514734 
L 302.753053 54.454777 
L 306.735712 55.181736 
L 310.718371 55.686633 
L 314.70103 55.997757 
L 320.675018 56.212636 
L 328.640335 56.278017 
L 328.640335 56.278017 
" style="fill:none;stroke:#4c72b0;stroke-linecap:round;stroke-width:2.25;"/>
   </g>
   <g id="patch_24">
    <path d="M 63.096563 56.288571 
L 341.285277 56.288571 
" style="fill:none;stroke:#262626;stroke-linecap:square;stroke-linejoin:miter;stroke-width:1.875;"/>
   </g>
  </g>
  <g id="axes_3">
   <g id="patch_25">
    <path d="M 350.877991 350.82 
L 398.841563 350.82 
L 398.841563 66.106286 
L 350.877991 66.106286 
z
" style="fill:#ffffff;"/>
   </g>
   <g id="matplotlib.axis_5">
    <g id="xtick_9"/>
    <g id="xtick_10"/>
   </g>
   <g id="matplotlib.axis_6">
    <g id="ytick_10">
     <g id="line2d_18">
      <g>
       <use style="fill:#262626;stroke:#262626;stroke-width:1.875;" x="350.877991" xlink:href="#mf50f86c60d" y="326.462523"/>
      </g>
     </g>
    </g>
    <g id="ytick_11">
     <g id="line2d_19">
      <g>
       <use style="fill:#262626;stroke:#262626;stroke-width:1.875;" x="350.877991" xlink:href="#mf50f86c60d" y="286.680063"/>
      </g>
     </g>
    </g>
    <g id="ytick_12">
     <g id="line2d_20">
      <g>
       <use style="fill:#262626;stroke:#262626;stroke-width:1.875;" x="350.877991" xlink:href="#mf50f86c60d" y="246.897602"/>
      </g>
     </g>
    </g>
    <g id="ytick_13">
     <g id="line2d_21">
      <g>
       <use style="fill:#262626;stroke:#262626;stroke-width:1.875;" x="350.877991" xlink:href="#mf50f86c60d" y="207.115142"/>
      </g>
     </g>
    </g>
    <g id="ytick_14">
     <g id="line2d_22">
      <g>
       <use style="fill:#262626;stroke:#262626;stroke-width:1.875;" x="350.877991" xlink:href="#mf50f86c60d" y="167.332682"/>
      </g>
     </g>
    </g>
    <g id="ytick_15">
     <g id="line2d_23">
      <g>
       <use style="fill:#262626;stroke:#262626;stroke-width:1.875;" x="350.877991" xlink:href="#mf50f86c60d" y="127.550221"/>
      </g>
     </g>
    </g>
    <g id="ytick_16">
     <g id="line2d_24">
      <g>
       <use style="fill:#262626;stroke:#262626;stroke-width:1.875;" x="350.877991" xlink:href="#mf50f86c60d" y="87.767761"/>
      </g>
     </g>
    </g>
   </g>
   <g id="patch_26">
    <path clip-path="url(#pb212b53bfc)" d="M 350.877991 309.102904 
L 353.415746 309.102904 
L 353.415746 297.262932 
L 350.877991 297.262932 
z
" style="fill:#4c72b0;opacity:0.4;stroke:#ffffff;stroke-linejoin:miter;stroke-width:1.5;"/>
   </g>
   <g id="patch_27">
    <path clip-path="url(#pb212b53bfc)" d="M 350.877991 297.262932 
L 350.877991 297.262932 
L 350.877991 285.42296 
L 350.877991 285.42296 
z
" style="fill:#4c72b0;opacity:0.4;stroke:#ffffff;stroke-linejoin:miter;stroke-width:1.5;"/>
   </g>
   <g id="patch_28">
    <path clip-path="url(#pb212b53bfc)" d="M 350.877991 285.42296 
L 352.146869 285.42296 
L 352.146869 273.582988 
L 350.877991 273.582988 
z
" style="fill:#4c72b0;opacity:0.4;stroke:#ffffff;stroke-linejoin:miter;stroke-width:1.5;"/>
   </g>
   <g id="patch_29">
    <path clip-path="url(#pb212b53bfc)" d="M 350.877991 273.582988 
L 353.415746 273.582988 
L 353.415746 261.743016 
L 350.877991 261.743016 
z
" style="fill:#4c72b0;opacity:0.4;stroke:#ffffff;stroke-linejoin:miter;stroke-width:1.5;"/>
   </g>
   <g id="patch_30">
    <path clip-path="url(#pb212b53bfc)" d="M 350.877991 261.743016 
L 353.415746 261.743016 
L 353.415746 249.903045 
L 350.877991 249.903045 
z
" style="fill:#4c72b0;opacity:0.4;stroke:#ffffff;stroke-linejoin:miter;stroke-width:1.5;"/>
   </g>
   <g id="patch_31">
    <path clip-path="url(#pb212b53bfc)" d="M 350.877991 249.903045 
L 358.491256 249.903045 
L 358.491256 238.063073 
L 350.877991 238.063073 
z
" style="fill:#4c72b0;opacity:0.4;stroke:#ffffff;stroke-linejoin:miter;stroke-width:1.5;"/>
   </g>
   <g id="patch_32">
    <path clip-path="url(#pb212b53bfc)" d="M 350.877991 238.063073 
L 357.222379 238.063073 
L 357.222379 226.223101 
L 350.877991 226.223101 
z
" style="fill:#4c72b0;opacity:0.4;stroke:#ffffff;stroke-linejoin:miter;stroke-width:1.5;"/>
   </g>
   <g id="patch_33">
    <path clip-path="url(#pb212b53bfc)" d="M 350.877991 226.223101 
L 368.642277 226.223101 
L 368.642277 214.383129 
L 350.877991 214.383129 
z
" style="fill:#4c72b0;opacity:0.4;stroke:#ffffff;stroke-linejoin:miter;stroke-width:1.5;"/>
   </g>
   <g id="patch_34">
    <path clip-path="url(#pb212b53bfc)" d="M 350.877991 214.383129 
L 372.448909 214.383129 
L 372.448909 202.543157 
L 350.877991 202.543157 
z
" style="fill:#4c72b0;opacity:0.4;stroke:#ffffff;stroke-linejoin:miter;stroke-width:1.5;"/>
   </g>
   <g id="patch_35">
    <path clip-path="url(#pb212b53bfc)" d="M 350.877991 202.543157 
L 396.557583 202.543157 
L 396.557583 190.703185 
L 350.877991 190.703185 
z
" style="fill:#4c72b0;opacity:0.4;stroke:#ffffff;stroke-linejoin:miter;stroke-width:1.5;"/>
   </g>
   <g id="patch_36">
    <path clip-path="url(#pb212b53bfc)" d="M 350.877991 190.703185 
L 383.868807 190.703185 
L 383.868807 178.863213 
L 350.877991 178.863213 
z
" style="fill:#4c72b0;opacity:0.4;stroke:#ffffff;stroke-linejoin:miter;stroke-width:1.5;"/>
   </g>
   <g id="patch_37">
    <path clip-path="url(#pb212b53bfc)" d="M 350.877991 178.863213 
L 392.75095 178.863213 
L 392.75095 167.023241 
L 350.877991 167.023241 
z
" style="fill:#4c72b0;opacity:0.4;stroke:#ffffff;stroke-linejoin:miter;stroke-width:1.5;"/>
   </g>
   <g id="patch_38">
    <path clip-path="url(#pb212b53bfc)" d="M 350.877991 167.023241 
L 385.137685 167.023241 
L 385.137685 155.183269 
L 350.877991 155.183269 
z
" style="fill:#4c72b0;opacity:0.4;stroke:#ffffff;stroke-linejoin:miter;stroke-width:1.5;"/>
   </g>
   <g id="patch_39">
    <path clip-path="url(#pb212b53bfc)" d="M 350.877991 155.183269 
L 376.255542 155.183269 
L 376.255542 143.343297 
L 350.877991 143.343297 
z
" style="fill:#4c72b0;opacity:0.4;stroke:#ffffff;stroke-linejoin:miter;stroke-width:1.5;"/>
   </g>
   <g id="patch_40">
    <path clip-path="url(#pb212b53bfc)" d="M 350.877991 143.343297 
L 361.029011 143.343297 
L 361.029011 131.503325 
L 350.877991 131.503325 
z
" style="fill:#4c72b0;opacity:0.4;stroke:#ffffff;stroke-linejoin:miter;stroke-width:1.5;"/>
   </g>
   <g id="patch_41">
    <path clip-path="url(#pb212b53bfc)" d="M 350.877991 131.503325 
L 353.415746 131.503325 
L 353.415746 119.663353 
L 350.877991 119.663353 
z
" style="fill:#4c72b0;opacity:0.4;stroke:#ffffff;stroke-linejoin:miter;stroke-width:1.5;"/>
   </g>
   <g id="patch_42">
    <path clip-path="url(#pb212b53bfc)" d="M 350.877991 119.663353 
L 353.415746 119.663353 
L 353.415746 107.823382 
L 350.877991 107.823382 
z
" style="fill:#4c72b0;opacity:0.4;stroke:#ffffff;stroke-linejoin:miter;stroke-width:1.5;"/>
   </g>
   <g id="line2d_25">
    <path clip-path="url(#pb212b53bfc)" d="M 350.889484 337.878468 
L 350.986407 327.688284 
L 351.308765 319.536138 
L 351.964281 307.307918 
L 351.958925 301.193809 
L 351.601829 288.965589 
L 351.708893 284.889516 
L 352.179651 278.775406 
L 354.348636 258.39504 
L 355.24173 252.28093 
L 356.352661 246.16682 
L 357.691443 240.05271 
L 358.849185 235.976637 
L 360.353995 231.900564 
L 362.256018 227.824491 
L 364.542364 223.748417 
L 367.209578 219.672344 
L 370.319568 215.596271 
L 373.963822 211.520198 
L 378.123286 207.444125 
L 384.54531 201.330015 
L 386.384941 199.291978 
L 387.905626 197.253942 
L 389.032812 195.215905 
L 389.734305 193.177868 
L 390.030837 191.139832 
L 389.995809 189.101795 
L 389.401672 185.025722 
L 388.892729 180.949649 
L 388.864755 176.873575 
L 388.858722 172.797502 
L 388.589329 170.759466 
L 388.018485 168.721429 
L 387.106698 166.683392 
L 385.867459 164.645356 
L 384.360497 162.607319 
L 380.904796 158.531246 
L 377.40687 154.455173 
L 372.557271 148.341063 
L 367.698726 142.226953 
L 362.778717 136.112843 
L 359.864461 132.03677 
L 358.60049 129.998733 
L 357.480606 127.960697 
L 356.504538 125.92266 
L 355.665088 123.884624 
L 354.346084 119.80855 
L 353.405796 115.732477 
L 352.723958 111.656404 
L 351.984155 105.542294 
L 351.45175 99.428184 
L 351.10989 93.314074 
L 350.920078 85.161928 
L 350.889417 79.047818 
L 350.889417 79.047818 
" style="fill:none;stroke:#4c72b0;stroke-linecap:round;stroke-width:2.25;"/>
   </g>
   <g id="patch_43">
    <path d="M 350.877991 350.82 
L 350.877991 66.106286 
" style="fill:none;stroke:#262626;stroke-linecap:square;stroke-linejoin:miter;stroke-width:1.875;"/>
   </g>
  </g>
 </g>
 <defs>
  <clipPath id="pf2de049fc7">
   <rect height="284.713714" width="278.188714" x="63.096563" y="66.106286"/>
  </clipPath>
  <clipPath id="p6e2ecd7009">
   <rect height="49.088571" width="278.188714" x="63.096563" y="7.2"/>
  </clipPath>
  <clipPath id="pb212b53bfc">
   <rect height="284.713714" width="47.963571" x="350.877991" y="66.106286"/>
  </clipPath>
 </defs>
</svg>
